<?xml version="1.0" encoding="UTF-8" standalone="no"?>
<!-- Created with Inkscape (http://www.inkscape.org/) -->

<svg
   version="1.1"
   id="svg50429"
   width="1000"
   height="666.66669"
   viewBox="0 0 1000 666.66669"
   sodipodi:docname="final.svg"
   inkscape:export-filename="6865725.eps.png"
   inkscape:export-xdpi="96"
   inkscape:export-ydpi="96"
   inkscape:version="1.2.2 (b0a84865, 2022-12-01)"
   xmlns:inkscape="http://www.inkscape.org/namespaces/inkscape"
   xmlns:sodipodi="http://sodipodi.sourceforge.net/DTD/sodipodi-0.dtd"
   xmlns="http://www.w3.org/2000/svg"
   xmlns:svg="http://www.w3.org/2000/svg">
  <defs
     id="defs50433">
    <clipPath
       clipPathUnits="userSpaceOnUse"
       id="clipPath50447">
      <path
         d="M 7500,0 H 0.00390625 V 5000 H 7500 V 0 M 895.59,718.77 V 683.012 H 6700.74 V 4281.23 h -28.17 V 4317 h -2492 v 0 H 867.426 V 718.77 h 28.164"
         id="path50445" />
    </clipPath>
    <linearGradient
       x1="0"
       y1="0"
       x2="1"
       y2="0"
       gradientUnits="userSpaceOnUse"
       gradientTransform="matrix(6250,6250,6250,-6250,625,-625)"
       spreadMethod="pad"
       id="linearGradient50453">
      <stop
         style="stop-opacity:1;stop-color:#b0b7e3"
         offset="0"
         id="stop50449" />
      <stop
         style="stop-opacity:1;stop-color:#e3e9f3"
         offset="1"
         id="stop50451" />
    </linearGradient>
    <clipPath
       clipPathUnits="userSpaceOnUse"
       id="clipPath50463">
      <path
         d="M 6700.74,683.012 H 895.59 v 35.758 h 5776.98 v 1097.12 163.24 826.1 542.54 513.21 420.25 h 28.17 V 683.012"
         id="path50461" />
    </clipPath>
    <linearGradient
       x1="0"
       y1="0"
       x2="1"
       y2="0"
       gradientUnits="userSpaceOnUse"
       gradientTransform="matrix(6250,6250,6250,-6250,625,-625)"
       spreadMethod="pad"
       id="linearGradient50469">
      <stop
         style="stop-opacity:1;stop-color:#7c85b3"
         offset="0"
         id="stop50465" />
      <stop
         style="stop-opacity:1;stop-color:#9ea4ab"
         offset="1"
         id="stop50467" />
    </linearGradient>
    <clipPath
       clipPathUnits="userSpaceOnUse"
       id="clipPath50479">
      <path
         d="m 867.426,718.77 h 5805.14 V 4317 H 867.426 Z"
         id="path50477" />
    </clipPath>
    <clipPath
       clipPathUnits="userSpaceOnUse"
       id="clipPath50523">
      <path
         d="m 1940.7,1698.47 h -595.71 c -51.48,0 -93.23,41.74 -93.23,93.23 v 7.5 c 0,51.49 41.75,93.23 93.23,93.23 h 595.71 c 51.48,0 93.23,-41.74 93.23,-93.23 v -7.5 c 0,-51.49 -41.75,-93.23 -93.23,-93.23 z"
         id="path50521" />
    </clipPath>
    <linearGradient
       x1="0"
       y1="0"
       x2="1"
       y2="0"
       gradientUnits="userSpaceOnUse"
       gradientTransform="matrix(782.161,0,0,-782.161,1251.76,1795.45)"
       spreadMethod="pad"
       id="linearGradient50529">
      <stop
         style="stop-opacity:1;stop-color:#b0b7e3"
         offset="0"
         id="stop50525" />
      <stop
         style="stop-opacity:1;stop-color:#e3e9f3"
         offset="1"
         id="stop50527" />
    </linearGradient>
    <clipPath
       clipPathUnits="userSpaceOnUse"
       id="clipPath50539">
      <path
         d="m 1917.29,1717.01 h -588.78 c -51.49,0 -93.23,41.74 -93.23,93.23 v 7.51 c 0,51.49 41.74,93.23 93.23,93.23 h 588.78 c 51.48,0 93.23,-41.74 93.23,-93.23 v -7.51 c 0,-51.49 -41.75,-93.23 -93.23,-93.23 z"
         id="path50537" />
    </clipPath>
    <linearGradient
       x1="0"
       y1="0"
       x2="1"
       y2="0"
       gradientUnits="userSpaceOnUse"
       gradientTransform="matrix(775.239,0,0,-775.239,1235.28,1814)"
       spreadMethod="pad"
       id="linearGradient50545">
      <stop
         style="stop-opacity:1;stop-color:#51ade5"
         offset="0"
         id="stop50541" />
      <stop
         style="stop-opacity:1;stop-color:#5fcbed"
         offset="1"
         id="stop50543" />
    </linearGradient>
    <clipPath
       clipPathUnits="userSpaceOnUse"
       id="clipPath50555">
      <path
         d="m 867.426,718.77 h 5805.14 V 4317 H 867.426 Z"
         id="path50553" />
    </clipPath>
    <clipPath
       clipPathUnits="userSpaceOnUse"
       id="clipPath50569">
      <path
         d="m 4212.44,1262.46 c -94.47,73.7 -178.52,161.79 -248.9,263.87 -292.21,423.8 -275.04,980.87 -6.43,1453.69 125.34,-100.95 310.15,-165.25 481.36,-165.25 132.94,0 257.69,38.78 339.98,129.31 100.6,110.67 118.19,277.11 82.28,439.35 218.58,47.71 406.53,170.76 618.39,235.97 117.49,36.17 240.47,54.4 363.44,54.4 98.07,0 196.13,-11.6 291.37,-34.95 136.89,-33.55 265.95,-93.55 383.26,-171.34 54.55,-36.16 106.45,-76.29 155.38,-119.74 v -542.54 c -73.6,48.73 -154.75,85.94 -240.49,108.41 -48.34,12.68 -96.7,19.52 -143.76,19.52 -65.84,0 -129.15,-13.38 -186.48,-42.89 -69.55,-35.79 -123.42,-83.65 -163.14,-139.29 -158.92,84.19 -332.92,135.24 -509.29,135.24 -42.57,0 -85.28,-2.97 -127.95,-9.18 -182.42,-26.52 -364.28,-119.91 -453.25,-281.35 -65.06,-118.06 -74.23,-261.75 -43.23,-392.94 14.72,-62.26 37.89,-121.94 66.97,-178.91 -92.22,-24.2 -180.86,-63.25 -263.05,-117.97 -220.78,-146.99 -355.21,-380.47 -396.46,-643.41"
         id="path50567" />
    </clipPath>
    <linearGradient
       x1="0"
       y1="0"
       x2="1"
       y2="0"
       gradientUnits="userSpaceOnUse"
       gradientTransform="matrix(3367.59,0,0,-3367.59,3750,2500)"
       spreadMethod="pad"
       id="linearGradient50577">
      <stop
         style="stop-opacity:1;stop-color:#f89dd3"
         offset="0"
         id="stop50571" />
      <stop
         style="stop-opacity:1;stop-color:#e582c7"
         offset="0.808049"
         id="stop50573" />
      <stop
         style="stop-opacity:1;stop-color:#e582c7"
         offset="1"
         id="stop50575" />
    </linearGradient>
    <clipPath
       clipPathUnits="userSpaceOnUse"
       id="clipPath50587">
      <path
         d="m 4802.8,977.941 c -12.27,0 -24.5,0.309 -36.66,0.93 -128.63,6.469 -253.99,41.509 -381.6,58.899 -57.25,7.81 -115.26,11.78 -173.33,11.78 -3.94,0 -7.9,-0.02 -11.85,-0.06 -2.2,72.34 2.21,143.67 13.08,212.97 41.25,262.94 175.68,496.42 396.46,643.41 82.19,54.72 170.83,93.77 263.05,117.97 32.2,-63.06 71.63,-122.78 114.82,-178.91 70.77,-91.97 153,-177.12 202.94,-281.87 73.63,-154.44 60.47,-358.11 -63.78,-475.71 -84.69,-80.15 -205.55,-109.409 -323.13,-109.409"
         id="path50585" />
    </clipPath>
    <linearGradient
       x1="0"
       y1="0"
       x2="1"
       y2="0"
       gradientUnits="userSpaceOnUse"
       gradientTransform="matrix(-40.0684,-2463.43,-2463.43,40.0684,5323.69,2050.49)"
       spreadMethod="pad"
       id="linearGradient50593">
      <stop
         style="stop-opacity:1;stop-color:#f793bf"
         offset="0"
         id="stop50589" />
      <stop
         style="stop-opacity:1;stop-color:#f57c79"
         offset="1"
         id="stop50591" />
    </linearGradient>
    <clipPath
       clipPathUnits="userSpaceOnUse"
       id="clipPath50603">
      <path
         d="m 4438.47,2814.77 c -171.21,0 -356.02,64.3 -481.36,165.25 -8.83,7.12 -17.37,14.42 -25.58,21.88 -215.32,195.74 -231.21,528.96 -35.48,744.29 40.31,44.34 86.45,80.22 136.18,107.54 16.88,-163.72 106.22,-317.24 256.72,-404.43 108.55,-62.89 233.7,-89.14 359.87,-89.14 65.29,0.01 130.86,7.04 194.54,19.66 5.81,1.15 11.61,2.35 17.37,3.61 35.91,-162.24 18.32,-328.68 -82.28,-439.35 -82.29,-90.53 -207.04,-129.31 -339.98,-129.31"
         id="path50601" />
    </clipPath>
    <linearGradient
       x1="0"
       y1="0"
       x2="1"
       y2="0"
       gradientUnits="userSpaceOnUse"
       gradientTransform="matrix(890.054,-793.583,-793.583,-890.054,3892.66,3742.42)"
       spreadMethod="pad"
       id="linearGradient50609">
      <stop
         style="stop-opacity:1;stop-color:#78d0aa"
         offset="0"
         id="stop50605" />
      <stop
         style="stop-opacity:1;stop-color:#70cfcb"
         offset="1"
         id="stop50607" />
    </linearGradient>
    <clipPath
       clipPathUnits="userSpaceOnUse"
       id="clipPath50619">
      <path
         d="m 6672.57,1979.13 c -112.87,189.4 -238.84,369.64 -396.01,523.37 -99.45,97.26 -214.09,182.92 -337.86,248.48 39.72,55.64 93.59,103.5 163.14,139.29 57.33,29.51 120.64,42.89 186.48,42.89 47.06,0 95.42,-6.84 143.76,-19.52 85.74,-22.47 166.89,-59.68 240.49,-108.41 v -826.1"
         id="path50617" />
    </clipPath>
    <linearGradient
       x1="0"
       y1="0"
       x2="1"
       y2="0"
       gradientUnits="userSpaceOnUse"
       gradientTransform="matrix(388.539,-1140.69,-1140.69,-388.539,6232.37,2938.93)"
       spreadMethod="pad"
       id="linearGradient50625">
      <stop
         style="stop-opacity:1;stop-color:#51ade5"
         offset="0"
         id="stop50621" />
      <stop
         style="stop-opacity:1;stop-color:#5fcbed"
         offset="1"
         id="stop50623" />
    </linearGradient>
    <clipPath
       clipPathUnits="userSpaceOnUse"
       id="clipPath50635">
      <path
         d="m 867.426,718.77 h 5805.14 V 4317 H 867.426 Z"
         id="path50633" />
    </clipPath>
    <clipPath
       clipPathUnits="userSpaceOnUse"
       id="clipPath50645">
      <path
         d="m 6167.54,1375.38 c -20.4,36.86 -41.95,72.42 -64.55,106.36 -243.99,366.48 -628.09,572.12 -994.57,572.12 -80.23,0 -159.58,-9.85 -236.47,-30.02 -29.08,56.97 -52.25,116.65 -66.97,178.91 -31,131.19 -21.83,274.88 43.23,392.94 88.97,161.44 270.83,254.83 453.25,281.35 42.67,6.21 85.38,9.18 127.95,9.18 176.37,0 350.37,-51.05 509.29,-135.24 -149.18,-208.97 -98.96,-527.98 68.18,-732.57 117.61,-143.96 302.6,-232.34 486.91,-232.35 31.46,0 62.9,2.58 93.99,7.89 -126.95,-158.6 -269.78,-301.78 -420.24,-418.57"
         id="path50643" />
    </clipPath>
    <linearGradient
       x1="0"
       y1="0"
       x2="1"
       y2="0"
       gradientUnits="userSpaceOnUse"
       gradientTransform="matrix(3367.59,0,0,-3367.59,3750,2500)"
       spreadMethod="pad"
       id="linearGradient50653">
      <stop
         style="stop-opacity:1;stop-color:#f689ca"
         offset="0"
         id="stop50647" />
      <stop
         style="stop-opacity:1;stop-color:#db69bb"
         offset="0.808049"
         id="stop50649" />
      <stop
         style="stop-opacity:1;stop-color:#db69bb"
         offset="1"
         id="stop50651" />
    </linearGradient>
    <clipPath
       clipPathUnits="userSpaceOnUse"
       id="clipPath50663">
      <path
         d="M 6385.8,718.77 H 4254.82 c -33.79,110.089 -52.14,221.582 -55.46,330.72 3.95,0.04 7.91,0.06 11.85,0.06 58.07,0 116.08,-3.97 173.33,-11.78 127.61,-17.39 252.97,-52.43 381.6,-58.899 12.16,-0.621 24.39,-0.93 36.66,-0.93 117.58,0 238.44,29.259 323.13,109.409 124.25,117.6 137.41,321.27 63.78,475.71 -49.94,104.75 -132.17,189.9 -202.94,281.87 -43.19,56.13 -82.62,115.85 -114.82,178.91 76.89,20.17 156.24,30.02 236.47,30.02 366.48,0 750.58,-205.64 994.57,-572.12 22.6,-33.94 44.15,-69.5 64.55,-106.36 107.57,-194.34 183.67,-425.689 218.26,-656.61"
         id="path50661" />
    </clipPath>
    <linearGradient
       x1="0"
       y1="0"
       x2="1"
       y2="0"
       gradientUnits="userSpaceOnUse"
       gradientTransform="matrix(-40.0684,-2463.43,-2463.43,40.0684,5323.69,2050.49)"
       spreadMethod="pad"
       id="linearGradient50669">
      <stop
         style="stop-opacity:1;stop-color:#f57fb3"
         offset="0"
         id="stop50665" />
      <stop
         style="stop-opacity:1;stop-color:#f3635e"
         offset="1"
         id="stop50667" />
    </linearGradient>
    <clipPath
       clipPathUnits="userSpaceOnUse"
       id="clipPath50679">
      <path
         d="m 6493.79,1786.06 c -184.31,0.01 -369.3,88.39 -486.91,232.35 -167.14,204.59 -217.36,523.6 -68.18,732.57 123.77,-65.56 238.41,-151.22 337.86,-248.48 157.17,-153.73 283.14,-333.97 396.01,-523.37 v -163.24 c -10.04,-3.58 -20.15,-6.81 -30.27,-9.66 -18.01,-5.07 -36.19,-9.15 -54.52,-12.28 -31.09,-5.31 -62.53,-7.89 -93.99,-7.89"
         id="path50677" />
    </clipPath>
    <linearGradient
       x1="0"
       y1="0"
       x2="1"
       y2="0"
       gradientUnits="userSpaceOnUse"
       gradientTransform="matrix(388.539,-1140.69,-1140.69,-388.539,6232.37,2938.93)"
       spreadMethod="pad"
       id="linearGradient50685">
      <stop
         style="stop-opacity:1;stop-color:#4293d7"
         offset="0"
         id="stop50681" />
      <stop
         style="stop-opacity:1;stop-color:#47c4ef"
         offset="1"
         id="stop50683" />
    </linearGradient>
    <clipPath
       clipPathUnits="userSpaceOnUse"
       id="clipPath50695">
      <path
         d="m 867.426,718.77 h 5805.14 V 4317 H 867.426 Z"
         id="path50693" />
    </clipPath>
    <clipPath
       clipPathUnits="userSpaceOnUse"
       id="clipPath50705">
      <path
         d="m 6672.57,3347.77 c -48.93,43.45 -100.83,83.58 -155.38,119.74 -117.31,77.79 -246.37,137.79 -383.26,171.34 -95.24,23.35 -193.3,34.95 -291.37,34.95 -122.97,0 -245.95,-18.23 -363.44,-54.4 -211.86,-65.21 -399.81,-188.26 -618.39,-235.97 -25.52,115.31 -78.07,228.53 -147.04,318.03 368.67,197.47 825.42,314.65 1241.41,314.65 267.4,0 518.06,-48.48 717.47,-155.13 v -513.21"
         id="path50703" />
    </clipPath>
    <linearGradient
       x1="0"
       y1="0"
       x2="1"
       y2="0"
       gradientUnits="userSpaceOnUse"
       gradientTransform="matrix(3367.59,0,0,-3367.59,3750,2500)"
       spreadMethod="pad"
       id="linearGradient50713">
      <stop
         style="stop-opacity:1;stop-color:#f689ca"
         offset="0"
         id="stop50707" />
      <stop
         style="stop-opacity:1;stop-color:#db69bb"
         offset="0.808049"
         id="stop50709" />
      <stop
         style="stop-opacity:1;stop-color:#db69bb"
         offset="1"
         id="stop50711" />
    </linearGradient>
    <clipPath
       clipPathUnits="userSpaceOnUse"
       id="clipPath50723">
      <path
         d="m 4648.82,3360.16 c -126.17,0 -251.32,26.25 -359.87,89.14 -150.5,87.19 -239.84,240.71 -256.72,404.43 78.56,43.15 166.12,64.94 253.85,64.94 126.45,0 253.3,-45.25 354.25,-137.01 25.99,-23.63 50.57,-50.62 73.36,-80.2 68.97,-89.5 121.52,-202.72 147.04,-318.03 -5.76,-1.26 -11.56,-2.46 -17.37,-3.61 -63.68,-12.62 -129.25,-19.65 -194.54,-19.66"
         id="path50721" />
    </clipPath>
    <linearGradient
       x1="0"
       y1="0"
       x2="1"
       y2="0"
       gradientUnits="userSpaceOnUse"
       gradientTransform="matrix(890.054,-793.583,-793.583,-890.054,3892.66,3742.42)"
       spreadMethod="pad"
       id="linearGradient50729">
      <stop
         style="stop-opacity:1;stop-color:#61c89e"
         offset="0"
         id="stop50725" />
      <stop
         style="stop-opacity:1;stop-color:#57c7c4"
         offset="1"
         id="stop50727" />
    </linearGradient>
    <clipPath
       clipPathUnits="userSpaceOnUse"
       id="clipPath50739">
      <path
         d="m 867.426,718.77 h 5805.14 V 4317 H 867.426 Z"
         id="path50737" />
    </clipPath>
    <clipPath
       clipPathUnits="userSpaceOnUse"
       id="clipPath50743">
      <path
         d="M 0,0 V 250 H 250 V 0 Z"
         id="path50741" />
    </clipPath>
    <pattern
       patternTransform="matrix(10,0,0,10,-70,0)"
       patternUnits="userSpaceOnUse"
       x="0"
       y="0"
       width="25"
       height="25"
       id="pattern50777">
      <g
         transform="scale(0.1)"
         id="g50775">
        <g
           id="g50773">
          <g
             clip-path="url(#clipPath50743)"
             id="g50771">
            <path
               d="m 248.664,-10.3516 c 6.453,0 11.684,5.23051 11.684,11.68363 0,6.45313 -5.231,11.68357 -11.684,11.68357 -6.461,0 -11.691,-5.23044 -11.691,-11.68357 0,-6.45312 5.23,-11.68363 11.691,-11.68363"
               style="fill:#171717;fill-opacity:1;fill-rule:nonzero;stroke:none"
               id="path50745" />
            <path
               d="m 131.773,-10.3516 c 6.454,0 11.692,5.23051 11.692,11.68363 0,6.45313 -5.238,11.68357 -11.692,11.68357 -6.46,0 -11.683,-5.23044 -11.683,-11.68357 0,-6.45312 5.223,-11.68363 11.683,-11.68363"
               style="fill:#171717;fill-opacity:1;fill-rule:nonzero;stroke:none"
               id="path50747" />
            <path
               d="m 248.664,106.52 c 6.453,0 11.684,5.25 11.684,11.703 0,6.453 -5.231,11.683 -11.684,11.683 -6.461,0 -11.691,-5.23 -11.691,-11.683 0,-6.453 5.23,-11.703 11.691,-11.703"
               style="fill:#171717;fill-opacity:1;fill-rule:nonzero;stroke:none"
               id="path50749" />
            <path
               d="m 131.773,106.52 c 6.454,0 11.692,5.25 11.692,11.703 0,6.453 -5.238,11.683 -11.692,11.683 -6.46,0 -11.683,-5.23 -11.683,-11.683 0,-6.453 5.223,-11.703 11.683,-11.703"
               style="fill:#171717;fill-opacity:1;fill-rule:nonzero;stroke:none"
               id="path50751" />
            <path
               d="m 73.3281,48.0859 c 6.4532,0 11.6914,5.2305 11.6914,11.6836 0,6.4688 -5.2382,11.6993 -11.6914,11.6993 -6.4609,0 -11.6836,-5.2305 -11.6836,-11.6993 0,-6.4531 5.2227,-11.6836 11.6836,-11.6836"
               style="fill:#171717;fill-opacity:1;fill-rule:nonzero;stroke:none"
               id="path50753" />
            <path
               d="m 190.219,48.0859 c 6.453,0 11.691,5.2305 11.691,11.6836 0,6.4688 -5.238,11.6993 -11.691,11.6993 -6.461,0 -11.692,-5.2305 -11.692,-11.6993 0,-6.4531 5.231,-11.6836 11.692,-11.6836"
               style="fill:#171717;fill-opacity:1;fill-rule:nonzero;stroke:none"
               id="path50755" />
            <path
               d="m 73.3281,164.973 c 6.4532,0 11.6914,5.234 11.6914,11.687 0,6.469 -5.2382,11.699 -11.6914,11.699 -6.4609,0 -11.6836,-5.23 -11.6836,-11.699 0,-6.453 5.2227,-11.687 11.6836,-11.687"
               style="fill:#171717;fill-opacity:1;fill-rule:nonzero;stroke:none"
               id="path50757" />
            <path
               d="m 190.219,164.973 c 6.453,0 11.691,5.234 11.691,11.687 0,6.469 -5.238,11.699 -11.691,11.699 -6.461,0 -11.692,-5.23 -11.692,-11.699 0,-6.453 5.231,-11.687 11.692,-11.687"
               style="fill:#171717;fill-opacity:1;fill-rule:nonzero;stroke:none"
               id="path50759" />
            <path
               d="m -1.33594,-10.3516 c 6.45313,0 11.68364,5.23051 11.68364,11.68363 0,6.45313 -5.23051,11.68357 -11.68364,11.68357 -6.46094,0 -11.69136,-5.23044 -11.69136,-11.68357 0,-6.45312 5.23042,-11.68363 11.69136,-11.68363"
               style="fill:#171717;fill-opacity:1;fill-rule:nonzero;stroke:none"
               id="path50761" />
            <path
               d="m -1.33594,106.52 c 6.45313,0 11.68364,5.25 11.68364,11.703 0,6.453 -5.23051,11.683 -11.68364,11.683 -6.46094,0 -11.69136,-5.23 -11.69136,-11.683 0,-6.453 5.23042,-11.703 11.69136,-11.703"
               style="fill:#171717;fill-opacity:1;fill-rule:nonzero;stroke:none"
               id="path50763" />
            <path
               d="m 248.664,239.648 c 6.453,0 11.684,5.231 11.684,11.684 0,6.453 -5.231,11.684 -11.684,11.684 -6.461,0 -11.691,-5.231 -11.691,-11.684 0,-6.453 5.23,-11.684 11.691,-11.684"
               style="fill:#171717;fill-opacity:1;fill-rule:nonzero;stroke:none"
               id="path50765" />
            <path
               d="m 131.773,239.648 c 6.454,0 11.692,5.231 11.692,11.684 0,6.453 -5.238,11.684 -11.692,11.684 -6.46,0 -11.683,-5.231 -11.683,-11.684 0,-6.453 5.223,-11.684 11.683,-11.684"
               style="fill:#171717;fill-opacity:1;fill-rule:nonzero;stroke:none"
               id="path50767" />
            <path
               d="m -1.33594,239.648 c 6.45313,0 11.68364,5.231 11.68364,11.684 0,6.453 -5.23051,11.684 -11.68364,11.684 -6.46094,0 -11.69136,-5.231 -11.69136,-11.684 0,-6.453 5.23042,-11.684 11.69136,-11.684"
               style="fill:#171717;fill-opacity:1;fill-rule:nonzero;stroke:none"
               id="path50769" />
          </g>
        </g>
      </g>
    </pattern>
    <clipPath
       clipPathUnits="userSpaceOnUse"
       id="clipPath50783">
      <path
         d="M 0,0 V 250 H 250 V 0 Z"
         id="path50781" />
    </clipPath>
    <pattern
       patternTransform="matrix(10,0,0,10,-70,0)"
       patternUnits="userSpaceOnUse"
       x="0"
       y="0"
       width="25"
       height="25"
       id="pattern50817">
      <g
         transform="scale(0.1)"
         id="g50815">
        <g
           id="g50813">
          <g
             clip-path="url(#clipPath50783)"
             id="g50811">
            <path
               d="m 248.664,-10.3516 c 6.453,0 11.684,5.23051 11.684,11.68363 0,6.45313 -5.231,11.68357 -11.684,11.68357 -6.461,0 -11.691,-5.23044 -11.691,-11.68357 0,-6.45312 5.23,-11.68363 11.691,-11.68363"
               style="fill:#171717;fill-opacity:1;fill-rule:nonzero;stroke:none"
               id="path50785" />
            <path
               d="m 131.773,-10.3516 c 6.454,0 11.692,5.23051 11.692,11.68363 0,6.45313 -5.238,11.68357 -11.692,11.68357 -6.46,0 -11.683,-5.23044 -11.683,-11.68357 0,-6.45312 5.223,-11.68363 11.683,-11.68363"
               style="fill:#171717;fill-opacity:1;fill-rule:nonzero;stroke:none"
               id="path50787" />
            <path
               d="m 248.664,106.52 c 6.453,0 11.684,5.25 11.684,11.703 0,6.453 -5.231,11.683 -11.684,11.683 -6.461,0 -11.691,-5.23 -11.691,-11.683 0,-6.453 5.23,-11.703 11.691,-11.703"
               style="fill:#171717;fill-opacity:1;fill-rule:nonzero;stroke:none"
               id="path50789" />
            <path
               d="m 131.773,106.52 c 6.454,0 11.692,5.25 11.692,11.703 0,6.453 -5.238,11.683 -11.692,11.683 -6.46,0 -11.683,-5.23 -11.683,-11.683 0,-6.453 5.223,-11.703 11.683,-11.703"
               style="fill:#171717;fill-opacity:1;fill-rule:nonzero;stroke:none"
               id="path50791" />
            <path
               d="m 73.3281,48.0859 c 6.4532,0 11.6914,5.2305 11.6914,11.6836 0,6.4688 -5.2382,11.6993 -11.6914,11.6993 -6.4609,0 -11.6836,-5.2305 -11.6836,-11.6993 0,-6.4531 5.2227,-11.6836 11.6836,-11.6836"
               style="fill:#171717;fill-opacity:1;fill-rule:nonzero;stroke:none"
               id="path50793" />
            <path
               d="m 190.219,48.0859 c 6.453,0 11.691,5.2305 11.691,11.6836 0,6.4688 -5.238,11.6993 -11.691,11.6993 -6.461,0 -11.692,-5.2305 -11.692,-11.6993 0,-6.4531 5.231,-11.6836 11.692,-11.6836"
               style="fill:#171717;fill-opacity:1;fill-rule:nonzero;stroke:none"
               id="path50795" />
            <path
               d="m 73.3281,164.973 c 6.4532,0 11.6914,5.234 11.6914,11.687 0,6.469 -5.2382,11.699 -11.6914,11.699 -6.4609,0 -11.6836,-5.23 -11.6836,-11.699 0,-6.453 5.2227,-11.687 11.6836,-11.687"
               style="fill:#171717;fill-opacity:1;fill-rule:nonzero;stroke:none"
               id="path50797" />
            <path
               d="m 190.219,164.973 c 6.453,0 11.691,5.234 11.691,11.687 0,6.469 -5.238,11.699 -11.691,11.699 -6.461,0 -11.692,-5.23 -11.692,-11.699 0,-6.453 5.231,-11.687 11.692,-11.687"
               style="fill:#171717;fill-opacity:1;fill-rule:nonzero;stroke:none"
               id="path50799" />
            <path
               d="m -1.33594,-10.3516 c 6.45313,0 11.68364,5.23051 11.68364,11.68363 0,6.45313 -5.23051,11.68357 -11.68364,11.68357 -6.46094,0 -11.69136,-5.23044 -11.69136,-11.68357 0,-6.45312 5.23042,-11.68363 11.69136,-11.68363"
               style="fill:#171717;fill-opacity:1;fill-rule:nonzero;stroke:none"
               id="path50801" />
            <path
               d="m -1.33594,106.52 c 6.45313,0 11.68364,5.25 11.68364,11.703 0,6.453 -5.23051,11.683 -11.68364,11.683 -6.46094,0 -11.69136,-5.23 -11.69136,-11.683 0,-6.453 5.23042,-11.703 11.69136,-11.703"
               style="fill:#171717;fill-opacity:1;fill-rule:nonzero;stroke:none"
               id="path50803" />
            <path
               d="m 248.664,239.648 c 6.453,0 11.684,5.231 11.684,11.684 0,6.453 -5.231,11.684 -11.684,11.684 -6.461,0 -11.691,-5.231 -11.691,-11.684 0,-6.453 5.23,-11.684 11.691,-11.684"
               style="fill:#171717;fill-opacity:1;fill-rule:nonzero;stroke:none"
               id="path50805" />
            <path
               d="m 131.773,239.648 c 6.454,0 11.692,5.231 11.692,11.684 0,6.453 -5.238,11.684 -11.692,11.684 -6.46,0 -11.683,-5.231 -11.683,-11.684 0,-6.453 5.223,-11.684 11.683,-11.684"
               style="fill:#171717;fill-opacity:1;fill-rule:nonzero;stroke:none"
               id="path50807" />
            <path
               d="m -1.33594,239.648 c 6.45313,0 11.68364,5.231 11.68364,11.684 0,6.453 -5.23051,11.684 -11.68364,11.684 -6.46094,0 -11.69136,-5.231 -11.69136,-11.684 0,-6.453 5.23042,-11.684 11.69136,-11.684"
               style="fill:#171717;fill-opacity:1;fill-rule:nonzero;stroke:none"
               id="path50809" />
          </g>
        </g>
      </g>
    </pattern>
    <clipPath
       clipPathUnits="userSpaceOnUse"
       id="clipPath50823">
      <path
         d="M 0,0 V 250 H 250 V 0 Z"
         id="path50821" />
    </clipPath>
    <pattern
       patternTransform="matrix(10,0,0,10,-70,0)"
       patternUnits="userSpaceOnUse"
       x="0"
       y="0"
       width="25"
       height="25"
       id="pattern50857">
      <g
         transform="scale(0.1)"
         id="g50855">
        <g
           id="g50853">
          <g
             clip-path="url(#clipPath50823)"
             id="g50851">
            <path
               d="m 248.664,-10.3516 c 6.453,0 11.684,5.23051 11.684,11.68363 0,6.45313 -5.231,11.68357 -11.684,11.68357 -6.461,0 -11.691,-5.23044 -11.691,-11.68357 0,-6.45312 5.23,-11.68363 11.691,-11.68363"
               style="fill:#171717;fill-opacity:1;fill-rule:nonzero;stroke:none"
               id="path50825" />
            <path
               d="m 131.773,-10.3516 c 6.454,0 11.692,5.23051 11.692,11.68363 0,6.45313 -5.238,11.68357 -11.692,11.68357 -6.46,0 -11.683,-5.23044 -11.683,-11.68357 0,-6.45312 5.223,-11.68363 11.683,-11.68363"
               style="fill:#171717;fill-opacity:1;fill-rule:nonzero;stroke:none"
               id="path50827" />
            <path
               d="m 248.664,106.52 c 6.453,0 11.684,5.25 11.684,11.703 0,6.453 -5.231,11.683 -11.684,11.683 -6.461,0 -11.691,-5.23 -11.691,-11.683 0,-6.453 5.23,-11.703 11.691,-11.703"
               style="fill:#171717;fill-opacity:1;fill-rule:nonzero;stroke:none"
               id="path50829" />
            <path
               d="m 131.773,106.52 c 6.454,0 11.692,5.25 11.692,11.703 0,6.453 -5.238,11.683 -11.692,11.683 -6.46,0 -11.683,-5.23 -11.683,-11.683 0,-6.453 5.223,-11.703 11.683,-11.703"
               style="fill:#171717;fill-opacity:1;fill-rule:nonzero;stroke:none"
               id="path50831" />
            <path
               d="m 73.3281,48.0859 c 6.4532,0 11.6914,5.2305 11.6914,11.6836 0,6.4688 -5.2382,11.6993 -11.6914,11.6993 -6.4609,0 -11.6836,-5.2305 -11.6836,-11.6993 0,-6.4531 5.2227,-11.6836 11.6836,-11.6836"
               style="fill:#171717;fill-opacity:1;fill-rule:nonzero;stroke:none"
               id="path50833" />
            <path
               d="m 190.219,48.0859 c 6.453,0 11.691,5.2305 11.691,11.6836 0,6.4688 -5.238,11.6993 -11.691,11.6993 -6.461,0 -11.692,-5.2305 -11.692,-11.6993 0,-6.4531 5.231,-11.6836 11.692,-11.6836"
               style="fill:#171717;fill-opacity:1;fill-rule:nonzero;stroke:none"
               id="path50835" />
            <path
               d="m 73.3281,164.973 c 6.4532,0 11.6914,5.234 11.6914,11.687 0,6.469 -5.2382,11.699 -11.6914,11.699 -6.4609,0 -11.6836,-5.23 -11.6836,-11.699 0,-6.453 5.2227,-11.687 11.6836,-11.687"
               style="fill:#171717;fill-opacity:1;fill-rule:nonzero;stroke:none"
               id="path50837" />
            <path
               d="m 190.219,164.973 c 6.453,0 11.691,5.234 11.691,11.687 0,6.469 -5.238,11.699 -11.691,11.699 -6.461,0 -11.692,-5.23 -11.692,-11.699 0,-6.453 5.231,-11.687 11.692,-11.687"
               style="fill:#171717;fill-opacity:1;fill-rule:nonzero;stroke:none"
               id="path50839" />
            <path
               d="m -1.33594,-10.3516 c 6.45313,0 11.68364,5.23051 11.68364,11.68363 0,6.45313 -5.23051,11.68357 -11.68364,11.68357 -6.46094,0 -11.69136,-5.23044 -11.69136,-11.68357 0,-6.45312 5.23042,-11.68363 11.69136,-11.68363"
               style="fill:#171717;fill-opacity:1;fill-rule:nonzero;stroke:none"
               id="path50841" />
            <path
               d="m -1.33594,106.52 c 6.45313,0 11.68364,5.25 11.68364,11.703 0,6.453 -5.23051,11.683 -11.68364,11.683 -6.46094,0 -11.69136,-5.23 -11.69136,-11.683 0,-6.453 5.23042,-11.703 11.69136,-11.703"
               style="fill:#171717;fill-opacity:1;fill-rule:nonzero;stroke:none"
               id="path50843" />
            <path
               d="m 248.664,239.648 c 6.453,0 11.684,5.231 11.684,11.684 0,6.453 -5.231,11.684 -11.684,11.684 -6.461,0 -11.691,-5.231 -11.691,-11.684 0,-6.453 5.23,-11.684 11.691,-11.684"
               style="fill:#171717;fill-opacity:1;fill-rule:nonzero;stroke:none"
               id="path50845" />
            <path
               d="m 131.773,239.648 c 6.454,0 11.692,5.231 11.692,11.684 0,6.453 -5.238,11.684 -11.692,11.684 -6.46,0 -11.683,-5.231 -11.683,-11.684 0,-6.453 5.223,-11.684 11.683,-11.684"
               style="fill:#171717;fill-opacity:1;fill-rule:nonzero;stroke:none"
               id="path50847" />
            <path
               d="m -1.33594,239.648 c 6.45313,0 11.68364,5.231 11.68364,11.684 0,6.453 -5.23051,11.684 -11.68364,11.684 -6.46094,0 -11.69136,-5.231 -11.69136,-11.684 0,-6.453 5.23042,-11.684 11.69136,-11.684"
               style="fill:#171717;fill-opacity:1;fill-rule:nonzero;stroke:none"
               id="path50849" />
          </g>
        </g>
      </g>
    </pattern>
  </defs>
  <sodipodi:namedview
     id="namedview50431"
     pagecolor="#ffffff"
     bordercolor="#000000"
     borderopacity="0.25"
     inkscape:showpageshadow="2"
     inkscape:pageopacity="0.0"
     inkscape:pagecheckerboard="0"
     inkscape:deskcolor="#d1d1d1"
     showgrid="false"
     inkscape:lockguides="false"
     inkscape:zoom="0.86365551"
     inkscape:cx="507.72558"
     inkscape:cy="302.20383"
     inkscape:window-width="1440"
     inkscape:window-height="872"
     inkscape:window-x="0"
     inkscape:window-y="28"
     inkscape:window-maximized="0"
     inkscape:current-layer="g50437">
    <inkscape:page
       x="0"
       y="0"
       id="page50435"
       width="1000"
       height="666.66669" />
  </sodipodi:namedview>
  <g
     id="g50437"
     inkscape:groupmode="layer"
     inkscape:label="Page 1"
     transform="matrix(1.3333333,0,0,-1.3333333,0,666.66667)"
     style="display:inline">
    <g
       id="g50439"
       transform="matrix(0.1,0,0,0.1,83.366575,68.603744)"
       style="display:inline"
       inkscape:transform-center-x="32.476669"
       inkscape:transform-center-y="54.309871">
      <g
         id="g50441"
         style="display:none">
        <g
           id="g50443"
           clip-path="url(#clipPath50447)">
          <path
             d="M 7500,0 H 0.00390625 V 5000 H 7500 V 0 M 895.59,718.77 V 683.012 H 6700.74 V 4281.23 h -28.17 V 4317 h -2492 v 0 H 867.426 V 718.77 h 28.164"
             style="fill:url(#linearGradient50453);fill-opacity:1;fill-rule:nonzero;stroke:none"
             id="path50455" />
        </g>
      </g>
      <g
         id="g50457"
         style="display:none">
        <g
           id="g50459"
           clip-path="url(#clipPath50463)">
          <path
             d="M 6700.74,683.012 H 895.59 v 35.758 h 5776.98 v 1097.12 163.24 826.1 542.54 513.21 420.25 h 28.17 V 683.012"
             style="fill:url(#linearGradient50469);fill-opacity:1;fill-rule:nonzero;stroke:none"
             id="path50471" />
        </g>
      </g>
      <g
         id="g50473"
         style="display:inline">
        <g
           id="g50475"
           clip-path="url(#clipPath50479)"
           style="display:none">
          <path
             d="m 867.426,718.77 h 5805.14 V 4317 H 867.426 Z"
             style="display:inline;fill:#ffffff;fill-opacity:1;fill-rule:nonzero;stroke:none"
             id="path50481" />
          <g
             id="g50483"
             transform="scale(10)">
            <text
               xml:space="preserve"
               transform="matrix(1,0,0,-1,123.528,391.867)"
               style="font-variant:normal;font-weight:normal;font-size:4px;font-family:Poppins;-inkscape-font-specification:Poppins-Regular;writing-mode:lr-tb;fill:#040606;fill-opacity:1;fill-rule:nonzero;stroke:none"
               id="text50487"><tspan
                 x="0"
                 sodipodi:role="line"
                 id="tspan50485"
                 y="0">O</tspan></text>
          </g>
          <path
             d="m 1801.28,1160.92 c 3.57,0.12 7.14,0.03 10.72,0.03 h 1.47 v 18.56 c -1.91,0.19 -3.91,0.47 -5.9,0.56 -3.66,0.16 -7.32,0.35 -10.98,0.26 -5.6,-0.12 -10.89,-1.48 -15.52,-4.79 -5.29,-3.81 -8.21,-9.17 -9.32,-15.5 -0.46,-2.61 -0.57,-5.3 -0.64,-7.96 -0.11,-4.17 -0.02,-8.33 -0.01,-12.5 v -1.56 h -17.77 v -20.73 h 17.66 v -52.11 h 21.57 v 52.03 h 17.6 c 0.91,6.89 1.79,13.72 2.71,20.83 -1.41,0 -2.68,0 -3.95,0 -5.01,-0.02 -16.49,0 -16.49,0 0,0 0.04,10.27 0.16,14.73 0.18,6.11 3.8,7.97 8.69,8.15"
             style="fill:#040606;fill-opacity:1;fill-rule:evenodd;stroke:none"
             id="path50489" />
          <path
             d="m 2037.74,1096.87 c -11.65,0.41 -18.94,8.76 -20.86,15.55 3.24,-0.61 6.43,-0.49 9.61,0.29 l 0.32,0.15 c -6.31,1.47 -11.18,4.85 -14.56,10.28 -2.25,3.63 -3.32,7.58 -3.28,11.93 3.14,-1.69 6.43,-2.63 9.97,-2.72 -4.75,3.42 -7.92,7.88 -9.23,13.6 -1.29,5.7 -0.45,11.12 2.41,16.24 12.13,-14.3 27.5,-22.14 46.23,-23.43 l -0.36,2.45 c -0.62,5.27 0.43,10.2 3.28,14.66 3.56,5.59 8.66,9.07 15.2,10.14 7.54,1.23 14.12,-0.92 19.63,-6.25 l 1.19,-0.37 c 4.61,1.01 8.94,2.67 13.04,5.02 l 0.29,0.16 0.16,0.01 c -1.78,-5.21 -5.01,-9.24 -9.6,-12.2 4.33,0.47 8.48,1.62 12.48,3.36 l 0.08,-0.11 c -0.86,-1.12 -1.69,-2.26 -2.57,-3.35 -2.38,-2.93 -5.11,-5.51 -8.15,-7.75 l -0.37,-0.7 c 0.13,-3.33 -0.01,-6.65 -0.42,-9.96 -0.86,-6.97 -2.8,-13.61 -5.77,-19.95 -3.08,-6.56 -7.08,-12.47 -12.12,-17.68 -8.54,-8.83 -18.83,-14.52 -30.8,-17.16 -4.11,-0.91 -8.28,-1.37 -12.49,-1.48 -12.93,-0.38 -24.87,2.83 -35.87,9.62 l -0.53,0.34 c 7.82,-0.84 15.27,0.16 22.42,3.09 3.8,1.56 7.33,3.61 10.67,6.22"
             style="fill:#040606;fill-opacity:1;fill-rule:evenodd;stroke:none"
             id="path50491" />
          <path
             d="m 2364.63,1154.51 c -0.01,-3.69 -3.02,-6.69 -6.72,-6.68 -3.7,0.01 -6.7,3.02 -6.69,6.72 0.01,3.7 3.02,6.69 6.72,6.69 3.7,-0.01 6.7,-3.02 6.69,-6.73 z m -36.64,-48.19 c -10.22,0.1 -18.44,8.46 -18.34,18.68 0.09,10.21 8.45,18.43 18.67,18.34 10.23,-0.1 18.44,-8.46 18.34,-18.67 -0.08,-10.23 -8.44,-18.44 -18.67,-18.35 z m 0.2,47.12 c -15.81,0.01 -28.64,-12.81 -28.64,-28.62 -0.01,-15.8 12.8,-28.62 28.61,-28.63 15.81,-0.01 28.63,12.79 28.64,28.6 0,15.82 -12.8,28.64 -28.61,28.65 z m 44.63,-56.6 c -1.5,-9.75 -7.97,-15.8 -17.78,-16.86 -9,-0.99 -49.21,-1.53 -57.57,0.8 -7.98,2.24 -12.55,7.73 -13.88,15.77 -1.26,7.68 -1.58,46.06 -0.01,56.33 1.46,9.67 7.94,15.7 17.68,16.8 9.9,1.1 45.48,1.23 54.95,-0.23 9.73,-1.49 15.77,-7.98 16.83,-17.8 1,-9.16 1.28,-44.97 -0.22,-54.81 z m 10.27,55.78 c -0.75,7.34 -3.56,13.84 -9.02,19.05 -5.75,5.48 -12.78,7.9 -20.47,8.31 -13.13,0.71 -44.28,1.17 -55.22,-0.61 -12.5,-2.05 -20.69,-9.33 -24.15,-21.68 -2.66,-9.51 -2.14,-53.28 -0.58,-62.67 2.12,-12.83 9.7,-21.06 22.43,-24.35 8.81,-2.27 52.08,-1.98 61.79,-0.41 12.85,2.08 21.12,9.63 24.46,22.33 2.55,9.75 1.65,51.23 0.76,60.03"
             style="fill:#040606;fill-opacity:1;fill-rule:nonzero;stroke:none"
             id="path50493" />
          <path
             d="m 2364.63,1154.51 c -0.01,-3.69 -3.02,-6.69 -6.72,-6.68 -3.7,0.01 -6.7,3.02 -6.69,6.72 0.01,3.7 3.02,6.69 6.72,6.69 3.7,-0.01 6.7,-3.02 6.69,-6.73 z m -36.64,-48.19 c -10.22,0.1 -18.44,8.46 -18.34,18.68 0.09,10.21 8.45,18.43 18.67,18.34 10.23,-0.1 18.44,-8.46 18.34,-18.67 -0.08,-10.23 -8.44,-18.44 -18.67,-18.35 z m 0.2,47.12 c -15.81,0.01 -28.64,-12.81 -28.64,-28.62 -0.01,-15.8 12.8,-28.62 28.61,-28.63 15.81,-0.01 28.63,12.79 28.64,28.6 0,15.82 -12.8,28.64 -28.61,28.65 z m 44.63,-56.6 c -1.5,-9.75 -7.97,-15.8 -17.78,-16.86 -9,-0.99 -49.21,-1.53 -57.57,0.8 -7.98,2.24 -12.55,7.73 -13.88,15.77 -1.26,7.68 -1.58,46.06 -0.01,56.33 1.46,9.67 7.94,15.7 17.68,16.8 9.9,1.1 45.48,1.23 54.95,-0.23 9.73,-1.49 15.77,-7.98 16.83,-17.8 1,-9.16 1.28,-44.97 -0.22,-54.81 z m 10.27,55.78 c -0.75,7.34 -3.56,13.84 -9.02,19.05 -5.75,5.48 -12.78,7.9 -20.47,8.31 -13.13,0.71 -44.28,1.17 -55.22,-0.61 -12.5,-2.05 -20.69,-9.33 -24.15,-21.68 -2.66,-9.51 -2.14,-53.28 -0.58,-62.67 2.12,-12.83 9.7,-21.06 22.43,-24.35 8.81,-2.27 52.08,-1.98 61.79,-0.41 12.85,2.08 21.12,9.63 24.46,22.33 2.55,9.75 1.65,51.23 0.76,60.03"
             style="fill:#040606;fill-opacity:1;fill-rule:nonzero;stroke:none"
             id="path50495" />
          <g
             id="g50497"
             transform="scale(10)">
            <text
               xml:space="preserve"
               transform="matrix(0.999991,0,0,-1,124.026,109.498)"
               style="font-variant:normal;font-weight:normal;font-size:6.35219px;font-family:Poppins;-inkscape-font-specification:Poppins-Regular;writing-mode:lr-tb;fill:#040606;fill-opacity:1;fill-rule:nonzero;stroke:none"
               id="text50501"><tspan
                 x="0 4.4717193 10.735449 14.750134 18.763844 25.027573"
                 y="0"
                 sodipodi:role="line"
                 id="tspan50499">FOLLOW</tspan></text>
            <text
               xml:space="preserve"
               transform="matrix(1,0,0,-1,125.222,283.869)"
               style="font-variant:normal;font-weight:900;font-size:36.1468px;font-family:Poppins;-inkscape-font-specification:Poppins-Black;writing-mode:lr-tb;fill:#040606;fill-opacity:1;fill-rule:nonzero;stroke:none"
               id="text50507"><tspan
                 sodipodi:role="line"
                 id="tspan50505"
                 x="0"
                 y="0" /></text>
            <text
               xml:space="preserve"
               transform="matrix(0.99999,0,0,-1,125.768,231.439)"
               style="font-variant:normal;font-weight:normal;font-size:6.10388px;font-family:Poppins;-inkscape-font-specification:Poppins-Regular;writing-mode:lr-tb;fill:#040606;fill-opacity:1;fill-rule:nonzero;stroke:none"
               id="text50515"><tspan
                 sodipodi:role="line"
                 id="tspan50513"
                 x="0"
                 y="0" /></text>
          </g>
        </g>
      </g>
      <g
         id="g50517"
         style="display:none">
        <g
           id="g50519"
           clip-path="url(#clipPath50523)">
          <path
             d="m 1940.7,1698.47 h -595.71 c -51.48,0 -93.23,41.74 -93.23,93.23 v 7.5 c 0,51.49 41.75,93.23 93.23,93.23 h 595.71 c 51.48,0 93.23,-41.74 93.23,-93.23 v -7.5 c 0,-51.49 -41.75,-93.23 -93.23,-93.23"
             style="fill:url(#linearGradient50529);fill-opacity:1;fill-rule:nonzero;stroke:none"
             id="path50531" />
        </g>
      </g>
      <g
         id="g50533"
         style="display:none">
        <g
           id="g50535"
           clip-path="url(#clipPath50539)">
          <path
             d="m 1917.29,1717.01 h -588.78 c -51.49,0 -93.23,41.74 -93.23,93.23 v 7.51 c 0,51.49 41.74,93.23 93.23,93.23 h 588.78 c 51.48,0 93.23,-41.74 93.23,-93.23 v -7.51 c 0,-51.49 -41.75,-93.23 -93.23,-93.23"
             style="fill:url(#linearGradient50545);fill-opacity:1;fill-rule:nonzero;stroke:none"
             id="path50547" />
        </g>
      </g>
      <g
         id="g50549"
         style="display:inline">
        <g
           id="g50551"
           clip-path="url(#clipPath50555)"
           style="display:inline">
          <g
             id="g50557"
             transform="scale(10)"
             style="display:inline">
            <text
               xml:space="preserve"
               transform="matrix(1,0,0,-1,134.654,179.325)"
               style="font-variant:normal;font-weight:900;font-size:6.29599px;font-family:Poppins;-inkscape-font-specification:Poppins-Black;writing-mode:lr-tb;display:none;fill:#ffffff;fill-opacity:1;fill-rule:nonzero;stroke:none"
               id="text50561"><tspan
                 x="0 4.4448233 9.2045918 15.330571 20.808115 26.971693 36.547871 42.768574 48.246117 53.005886"
                 y="0"
                 sodipodi:role="line"
                 id="tspan50559">LEARN ORE </tspan></text>
          </g>
        </g>
      </g>
      <g
         id="g50563"
         style="display:inline">
        <g
           id="g50565"
           clip-path="url(#clipPath50569)">
          <path
             d="m 4212.44,1262.46 c -94.47,73.7 -178.52,161.79 -248.9,263.87 -292.21,423.8 -275.04,980.87 -6.43,1453.69 125.34,-100.95 310.15,-165.25 481.36,-165.25 132.94,0 257.69,38.78 339.98,129.31 100.6,110.67 118.19,277.11 82.28,439.35 218.58,47.71 406.53,170.76 618.39,235.97 117.49,36.17 240.47,54.4 363.44,54.4 98.07,0 196.13,-11.6 291.37,-34.95 136.89,-33.55 265.95,-93.55 383.26,-171.34 54.55,-36.16 106.45,-76.29 155.38,-119.74 v -542.54 c -73.6,48.73 -154.75,85.94 -240.49,108.41 -48.34,12.68 -96.7,19.52 -143.76,19.52 -65.84,0 -129.15,-13.38 -186.48,-42.89 -69.55,-35.79 -123.42,-83.65 -163.14,-139.29 -158.92,84.19 -332.92,135.24 -509.29,135.24 -42.57,0 -85.28,-2.97 -127.95,-9.18 -182.42,-26.52 -364.28,-119.91 -453.25,-281.35 -65.06,-118.06 -74.23,-261.75 -43.23,-392.94 14.72,-62.26 37.89,-121.94 66.97,-178.91 -92.22,-24.2 -180.86,-63.25 -263.05,-117.97 -220.78,-146.99 -355.21,-380.47 -396.46,-643.41"
             style="fill:url(#linearGradient50577);fill-opacity:1;fill-rule:nonzero;stroke:none"
             id="path50579" />
        </g>
      </g>
      <g
         id="g50581"
         style="display:inline">
        <g
           id="g50583"
           clip-path="url(#clipPath50587)">
          <path
             d="m 4802.8,977.941 c -12.27,0 -24.5,0.309 -36.66,0.93 -128.63,6.469 -253.99,41.509 -381.6,58.899 -57.25,7.81 -115.26,11.78 -173.33,11.78 -3.94,0 -7.9,-0.02 -11.85,-0.06 -2.2,72.34 2.21,143.67 13.08,212.97 41.25,262.94 175.68,496.42 396.46,643.41 82.19,54.72 170.83,93.77 263.05,117.97 32.2,-63.06 71.63,-122.78 114.82,-178.91 70.77,-91.97 153,-177.12 202.94,-281.87 73.63,-154.44 60.47,-358.11 -63.78,-475.71 -84.69,-80.15 -205.55,-109.409 -323.13,-109.409"
             style="fill:url(#linearGradient50593);fill-opacity:1;fill-rule:nonzero;stroke:none"
             id="path50595" />
        </g>
      </g>
      <g
         id="g50597"
         style="display:inline">
        <g
           id="g50599"
           clip-path="url(#clipPath50603)">
          <path
             d="m 4438.47,2814.77 c -171.21,0 -356.02,64.3 -481.36,165.25 -8.83,7.12 -17.37,14.42 -25.58,21.88 -215.32,195.74 -231.21,528.96 -35.48,744.29 40.31,44.34 86.45,80.22 136.18,107.54 16.88,-163.72 106.22,-317.24 256.72,-404.43 108.55,-62.89 233.7,-89.14 359.87,-89.14 65.29,0.01 130.86,7.04 194.54,19.66 5.81,1.15 11.61,2.35 17.37,3.61 35.91,-162.24 18.32,-328.68 -82.28,-439.35 -82.29,-90.53 -207.04,-129.31 -339.98,-129.31"
             style="fill:url(#linearGradient50609);fill-opacity:1;fill-rule:nonzero;stroke:none"
             id="path50611" />
        </g>
      </g>
      <g
         id="g50613">
        <g
           id="g50615"
           clip-path="url(#clipPath50619)">
          <path
             d="m 6672.57,1979.13 c -112.87,189.4 -238.84,369.64 -396.01,523.37 -99.45,97.26 -214.09,182.92 -337.86,248.48 39.72,55.64 93.59,103.5 163.14,139.29 57.33,29.51 120.64,42.89 186.48,42.89 47.06,0 95.42,-6.84 143.76,-19.52 85.74,-22.47 166.89,-59.68 240.49,-108.41 v -826.1"
             style="fill:url(#linearGradient50625);fill-opacity:1;fill-rule:nonzero;stroke:none"
             id="path50627" />
        </g>
      </g>
      <g
         id="g50629">
        <g
           id="g50631"
           clip-path="url(#clipPath50635)">
          <path
             d="M 6672.57,718.77 H 6385.8 c -34.59,230.921 -110.69,462.27 -218.26,656.61 150.46,116.79 293.29,259.97 420.24,418.57 18.33,3.13 36.51,7.21 54.52,12.28 10.12,2.85 20.23,6.08 30.27,9.66 V 718.77 m -2417.75,0 h -848.4 c 112.08,120.742 268.28,217.5 420.37,269 119.48,40.46 246.04,60.55 372.57,61.72 3.32,-109.138 21.67,-220.631 55.46,-330.72"
             style="fill:#ffffff;fill-opacity:1;fill-rule:nonzero;stroke:none"
             id="path50637" />
        </g>
      </g>
      <g
         id="g50639">
        <g
           id="g50641"
           clip-path="url(#clipPath50645)">
          <path
             d="m 6167.54,1375.38 c -20.4,36.86 -41.95,72.42 -64.55,106.36 -243.99,366.48 -628.09,572.12 -994.57,572.12 -80.23,0 -159.58,-9.85 -236.47,-30.02 -29.08,56.97 -52.25,116.65 -66.97,178.91 -31,131.19 -21.83,274.88 43.23,392.94 88.97,161.44 270.83,254.83 453.25,281.35 42.67,6.21 85.38,9.18 127.95,9.18 176.37,0 350.37,-51.05 509.29,-135.24 -149.18,-208.97 -98.96,-527.98 68.18,-732.57 117.61,-143.96 302.6,-232.34 486.91,-232.35 31.46,0 62.9,2.58 93.99,7.89 -126.95,-158.6 -269.78,-301.78 -420.24,-418.57"
             style="fill:url(#linearGradient50653);fill-opacity:1;fill-rule:nonzero;stroke:none"
             id="path50655" />
        </g>
      </g>
      <g
         id="g50657">
        <g
           id="g50659"
           clip-path="url(#clipPath50663)">
          <path
             d="M 6385.8,718.77 H 4254.82 c -33.79,110.089 -52.14,221.582 -55.46,330.72 3.95,0.04 7.91,0.06 11.85,0.06 58.07,0 116.08,-3.97 173.33,-11.78 127.61,-17.39 252.97,-52.43 381.6,-58.899 12.16,-0.621 24.39,-0.93 36.66,-0.93 117.58,0 238.44,29.259 323.13,109.409 124.25,117.6 137.41,321.27 63.78,475.71 -49.94,104.75 -132.17,189.9 -202.94,281.87 -43.19,56.13 -82.62,115.85 -114.82,178.91 76.89,20.17 156.24,30.02 236.47,30.02 366.48,0 750.58,-205.64 994.57,-572.12 22.6,-33.94 44.15,-69.5 64.55,-106.36 107.57,-194.34 183.67,-425.689 218.26,-656.61"
             style="fill:url(#linearGradient50669);fill-opacity:1;fill-rule:nonzero;stroke:none"
             id="path50671" />
        </g>
      </g>
      <g
         id="g50673">
        <g
           id="g50675"
           clip-path="url(#clipPath50679)">
          <path
             d="m 6493.79,1786.06 c -184.31,0.01 -369.3,88.39 -486.91,232.35 -167.14,204.59 -217.36,523.6 -68.18,732.57 123.77,-65.56 238.41,-151.22 337.86,-248.48 157.17,-153.73 283.14,-333.97 396.01,-523.37 v -163.24 c -10.04,-3.58 -20.15,-6.81 -30.27,-9.66 -18.01,-5.07 -36.19,-9.15 -54.52,-12.28 -31.09,-5.31 -62.53,-7.89 -93.99,-7.89"
             style="fill:url(#linearGradient50685);fill-opacity:1;fill-rule:nonzero;stroke:none"
             id="path50687" />
        </g>
      </g>
      <g
         id="g50689">
        <g
           id="g50691"
           clip-path="url(#clipPath50695)">
          <path
             d="m 4713.69,3701.46 c -22.79,29.58 -47.37,56.57 -73.36,80.2 -100.95,91.76 -227.8,137.01 -354.25,137.01 -87.73,0 -175.29,-21.79 -253.85,-64.94 -9.38,91.09 3.66,185.35 41.09,273.1 24.52,57.48 60.64,129.37 107.25,190.17 h 2492 v -35.77 -420.25 c -199.41,106.65 -450.07,155.13 -717.47,155.13 -415.99,0 -872.74,-117.18 -1241.41,-314.65"
             style="fill:#ffffff;fill-opacity:1;fill-rule:nonzero;stroke:none"
             id="path50697" />
        </g>
      </g>
      <g
         id="g50699">
        <g
           id="g50701"
           clip-path="url(#clipPath50705)">
          <path
             d="m 6672.57,3347.77 c -48.93,43.45 -100.83,83.58 -155.38,119.74 -117.31,77.79 -246.37,137.79 -383.26,171.34 -95.24,23.35 -193.3,34.95 -291.37,34.95 -122.97,0 -245.95,-18.23 -363.44,-54.4 -211.86,-65.21 -399.81,-188.26 -618.39,-235.97 -25.52,115.31 -78.07,228.53 -147.04,318.03 368.67,197.47 825.42,314.65 1241.41,314.65 267.4,0 518.06,-48.48 717.47,-155.13 v -513.21"
             style="fill:url(#linearGradient50713);fill-opacity:1;fill-rule:nonzero;stroke:none"
             id="path50715" />
        </g>
      </g>
      <g
         id="g50717">
        <g
           id="g50719"
           clip-path="url(#clipPath50723)">
          <path
             d="m 4648.82,3360.16 c -126.17,0 -251.32,26.25 -359.87,89.14 -150.5,87.19 -239.84,240.71 -256.72,404.43 78.56,43.15 166.12,64.94 253.85,64.94 126.45,0 253.3,-45.25 354.25,-137.01 25.99,-23.63 50.57,-50.62 73.36,-80.2 68.97,-89.5 121.52,-202.72 147.04,-318.03 -5.76,-1.26 -11.56,-2.46 -17.37,-3.61 -63.68,-12.62 -129.25,-19.65 -194.54,-19.66"
             style="fill:url(#linearGradient50729);fill-opacity:1;fill-rule:nonzero;stroke:none"
             id="path50731" />
        </g>
      </g>
      <g
         id="g50733">
        <g
           id="g50735"
           clip-path="url(#clipPath50739)">
          <path
             d="m 2983.43,654.949 c 151.51,296.071 457.07,485.931 773.01,589.831 260.59,85.69 558.72,119.14 799.86,-11.63 151.02,-81.88 268.69,-222.52 430.67,-279.759 297.2,-105.032 648.34,101.259 932.69,-34.77 148.2,-70.891 241.68,-220.332 311.44,-369.051 L 2983.43,654.949"
             style="fill:url(#pattern50777);fill-opacity:1;fill-rule:nonzero;stroke:none"
             id="path50779" />
          <path
             d="m 7000.12,4011.04 c -156.7,103.88 -341.65,164.68 -529.42,174.05 -120.16,6 -243.14,-9.31 -352.44,-59.58 -109.31,-50.26 -204,-137.8 -248.89,-249.42 -21.03,-52.29 -30.9,-108.68 -32.7,-165.02 -1.38,-43.14 2.11,-87.33 19.04,-127.05 18.05,-42.36 50.26,-77.07 84.37,-108 78.37,-71.09 170.29,-127.19 269.35,-164.4 41.72,-15.67 85.79,-28.62 120.16,-56.99 34.37,-28.36 56.44,-77.81 37.9,-118.34 -23.37,-51.1 -91.25,-58.77 -139.79,-87.08 -93.17,-54.33 -107.2,-193.75 -51.21,-285.95 55.97,-92.21 161,-143.4 265.34,-170.76 143.43,-37.61 296.17,-39.12 440.32,-4.35 l 117.97,1422.89"
             style="fill:url(#pattern50817);fill-opacity:1;fill-rule:nonzero;stroke:none"
             id="path50819" />
          <path
             d="m 3815.19,3137.08 c -56.3,-31.68 -105.55,-75.66 -142.44,-132.52 -95.68,-147.44 -82.98,-350.91 34.53,-482.92 94.6,-106.26 323.89,-198.13 446.59,-83.59 30.34,28.31 45.36,75.89 26.68,112.94 -14.64,29.03 -45.29,45.53 -71.88,64.24 -26.59,18.72 -52.63,46.31 -49.5,78.67 4.3,44.45 60.77,64.85 104.6,56.28 43.83,-8.56 82.72,-34.89 126.66,-42.86 75.75,-13.73 148.42,36.63 182.89,101.55 96.91,182.49 -86.7,316.65 -242.73,365.59 -135.15,42.39 -292.17,31.97 -415.4,-37.38"
             style="fill:url(#pattern50857);fill-opacity:1;fill-rule:nonzero;stroke:none"
             id="path50859" />
          <path
             d="m 4836.71,4661.53 c -67.96,-101.14 -99.13,-221.28 -99.13,-342.97 0,-118.59 29.59,-238.67 83.64,-344.23 109.48,-213.78 305.94,-372.47 520.19,-480.21 89.31,-44.88 183.86,-83.12 256.82,-150.31 56.37,-51.86 97.69,-127.31 97.65,-201.41 0,-21.73 -3.53,-43.35 -11.26,-64.29 -24.52,-66.55 -82.95,-109.62 -143.6,-152.19 -60.58,-42.57 -123.34,-84.6 -155.37,-150.01 -14.71,-30.07 -21.34,-62.92 -21.34,-96.1 0.01,-49.35 14.64,-99.43 39.27,-142.42 41.17,-71.85 106.73,-126.27 175.61,-171.43 195.35,-128.05 429.37,-192.54 663.13,-192.54 50.74,0 101.46,3.04 151.78,9.13 282.14,34.12 550.12,161.55 763.93,348.64 l -3.3,3.76 c -213.09,-186.47 -480.2,-313.46 -761.23,-347.44 -50.12,-6.06 -100.64,-9.09 -151.18,-9.09 -232.84,0 -465.93,64.25 -660.39,191.72 -68.58,44.95 -133.47,98.94 -174.01,169.73 -24.23,42.28 -38.61,91.58 -38.61,139.94 0,32.52 6.5,64.6 20.83,93.9 31.17,63.81 93.05,105.53 153.75,148.12 60.63,42.61 120.14,86.15 145.42,154.55 7.95,21.52 11.58,43.75 11.57,66.02 -0.03,75.98 -42.07,152.42 -99.26,205.09 -73.89,67.99 -168.93,106.32 -257.96,151.1 -213.62,107.41 -409.19,265.53 -517.99,478.02 -53.69,104.84 -83.09,224.19 -83.09,341.95 0,120.85 30.95,239.99 98.28,340.18 l -4.15,2.79"
             style="fill:#040606;fill-opacity:1;fill-rule:nonzero;stroke:none"
             id="path50861" />
          <path
             d="m 2514.79,653.492 c 202.94,325.668 516.72,580.928 876.88,713.298 583.54,214.61 1253.37,107.88 1828.27,349.48 40.08,16.88 82.71,37.91 103.68,77.18 6.19,11.65 9.13,25.06 9.14,38.41 -0.01,16.12 -4.29,32.17 -12.55,44.99 -8.25,12.82 -20.62,22.43 -36.51,25.16 -2.96,0.5 -5.9,0.75 -8.8,0.75 -18.05,-0.01 -34.52,-9.44 -46.56,-23.28 -12.05,-13.86 -19.81,-32.2 -20.41,-50.61 -0.03,-1.04 -0.05,-2.08 -0.05,-3.12 0.04,-38.17 21.87,-72.7 45.84,-101.62 97.32,-117.28 243.93,-184.31 392.71,-215.44 148.75,-31.14 301.84,-29.92 453.39,-32.65 329.3,-5.93 680.45,-39.58 936.89,-244.78 l 3.13,3.9 c -258.1,206.43 -610.42,239.9 -939.93,245.87 -151.63,2.73 -304.42,1.55 -452.46,32.55 -148.04,30.97 -293.58,97.66 -389.88,213.74 -23.73,28.58 -44.72,62.26 -44.69,98.43 0,0.98 0.02,1.97 0.05,2.96 0.53,17.09 7.85,34.48 19.18,47.49 11.34,13.02 26.55,21.57 42.79,21.56 2.62,0 5.27,-0.22 7.95,-0.68 14.35,-2.49 25.48,-11.05 33.16,-22.93 7.66,-11.88 11.75,-27.06 11.75,-42.29 0,-12.61 -2.8,-25.24 -8.56,-36.06 -19.83,-37.36 -61.24,-58.15 -101.2,-74.92 C 4644.96,1479.82 3975.21,1586.49 3389.94,1371.49 3028.71,1238.71 2714.09,982.77 2510.55,656.141 l 4.24,-2.649"
             style="fill:#040606;fill-opacity:1;fill-rule:nonzero;stroke:none"
             id="path50863" />
        </g>
      </g>
    </g>
  </g>
</svg>
