<?xml version="1.0" encoding="UTF-8" standalone="no"?>
<!DOCTYPE svg PUBLIC "-//W3C//DTD SVG 1.1//EN" "http://www.w3.org/Graphics/SVG/1.1/DTD/svg11.dtd">
<svg xmlns="http://www.w3.org/2000/svg" version="1.1" viewBox="0 0 750 749">
<g stroke-width="2.00" fill="none" stroke-linecap="butt">
<path stroke="#316de6" vector-effect="non-scaling-stroke" d="
  M 472.54 217.25
  C 470.07 221.82 464.63 218.44 461.02 217.37
  Q 458.42 216.60 455.99 217.80
  C 440.75 225.33 426.26 232.51 410.93 239.27"
/>
<path stroke="#3873ea" vector-effect="non-scaling-stroke" d="
  M 410.93 239.27
  Q 400.72 224.30 391.15 209.08
  C 386.72 202.04 376.41 184.31 366.75 198.53
  Q 354.87 216.01 348.51 225.74
  C 345.12 230.93 341.89 235.00 337.97 239.29
  A 1.01 1.00 -54.0 0 1 336.74 239.49
  Q 318.16 228.89 299.05 220.08
  Q 284.55 213.39 280.17 226.44
  C 278.63 231.04 279.51 236.97 279.15 241.43
  Q 277.84 257.73 276.20 276.63
  A 0.99 0.98 -88.1 0 1 275.23 277.54
  Q 254.33 277.97 232.20 278.49
  Q 223.71 278.69 218.97 285.38
  C 215.97 289.63 219.47 295.72 221.72 300.40
  Q 227.55 312.57 233.66 324.60
  Q 235.29 327.80 236.97 331.65
  Q 238.40 334.93 240.05 338.50
  A 1.01 0.99 -28.3 0 1 239.66 339.77
  Q 235.01 342.62 231.26 346.56
  A 1.00 0.99 -36.8 0 0 231.09 347.69
  Q 233.30 352.18 233.49 357.17
  A 1.01 0.98 -65.3 0 0 233.69 357.74
  C 235.48 360.13 234.96 368.21 235.57 374.26
  C 236.42 382.63 233.88 389.77 233.11 397.92
  Q 232.81 401.06 231.92 404.65
  A 1.00 0.98 25.5 0 0 232.30 405.70
  L 239.19 410.68
  A 1.00 0.99 30.7 0 1 239.51 411.92
  C 234.20 423.14 229.28 434.50 223.32 445.40
  Q 218.45 454.28 217.06 464.42
  A 0.99 0.99 0.0 0 1 216.35 465.25
  L 215.14 465.59
  A 1.00 1.00 0.0 0 1 213.90 464.87
  Q 212.76 460.33 213.46 455.75"
/>
<path stroke="#2146ad" vector-effect="non-scaling-stroke" d="
  M 213.46 455.75
  C 217.44 444.35 223.15 434.33 228.23 423.48
  Q 230.55 418.53 233.36 413.77
  A 1.00 0.99 33.4 0 0 233.08 412.45
  L 221.41 404.09"
/>
<path stroke="#255eda" vector-effect="non-scaling-stroke" d="
  M 221.41 404.09
  Q 209.70 393.23 195.75 385.54"
/>
<path stroke="#2146ad" vector-effect="non-scaling-stroke" d="
  M 195.75 385.54
  C 186.13 377.13 189.73 367.52 197.74 360.06
  Q 200.24 357.74 204.82 355.26
  C 214.65 349.96 222.85 343.48 232.15 337.48
  A 1.00 0.99 -28.8 0 0 232.52 336.23
  Q 229.88 330.45 227.09 324.55
  C 224.86 319.84 220.90 313.40 218.53 307.32
  C 216.74 302.71 214.44 298.84 212.41 294.49
  C 212.01 293.62 211.42 294.01 210.80 294.37"
/>
<path stroke="#3873ea" vector-effect="non-scaling-stroke" d="
  M 271.04 245.75
  Q 272.04 246.25 272.22 245.51
  Q 274.99 234.03 276.10 222.25
  C 277.00 212.75 286.36 211.42 294.31 211.59"
/>
<path stroke="#2146ad" vector-effect="non-scaling-stroke" d="
  M 315.50 221.54
  L 318.00 222.71"
/>
<path stroke="#2146ad" vector-effect="non-scaling-stroke" d="
  M 325.25 226.29
  Q 326.32 227.31 327.75 227.50"
/>
<path stroke="#2146ad" vector-effect="non-scaling-stroke" d="
  M 327.75 227.50
  Q 328.97 228.82 330.75 228.71"
/>
<path stroke="#3873ea" vector-effect="non-scaling-stroke" d="
  M 333.50 229.79
  L 335.82 232.17
  A 1.00 0.99 -52.8 0 0 337.41 231.95
  C 340.26 226.77 343.91 223.00 346.64 218.15
  Q 348.61 214.66 351.21 211.64
  C 355.57 206.56 358.48 201.09 362.29 195.80
  A 1.01 0.98 -78.8 0 1 362.84 195.42
  C 364.74 194.89 365.71 192.72 367.08 191.56
  A 1.00 1.00 0.0 0 0 367.24 190.20
  L 366.94 189.80"
/>
<path stroke="#052998" vector-effect="non-scaling-stroke" d="
  M 195.75 385.54
  Q 201.75 391.97 204.24 393.25
  Q 213.27 397.94 221.41 404.09"
/>
<path stroke="#052998" vector-effect="non-scaling-stroke" d="
  M 318.41 524.37
  C 323.36 523.84 329.62 520.47 333.09 516.63"
/>
<path stroke="#052998" vector-effect="non-scaling-stroke" d="
  M 364.54 554.25
  Q 368.30 559.53 375.11 559.20"
/>
<path stroke="#316de6" vector-effect="non-scaling-stroke" d="
  M 482.25 270.29
  Q 481.62 270.62 480.95 270.74
  A 1.00 1.00 0.0 0 0 480.16 271.95
  Q 480.44 273.19 479.92 274.23
  A 1.00 1.00 0.0 0 0 480.71 275.67
  Q 486.54 276.27 492.56 276.90
  C 502.61 277.94 514.23 277.91 523.49 279.28
  C 525.16 279.53 533.61 283.62 533.79 278.50"
/>
<path stroke="#316de6" vector-effect="non-scaling-stroke" d="
  M 538.40 286.33
  C 535.29 286.72 535.03 288.06 533.96 290.40
  C 529.42 300.30 525.53 310.97 521.12 320.35
  Q 517.99 327.01 514.83 333.68
  A 1.02 1.02 0.0 0 0 514.78 334.42
  Q 515.55 336.78 518.00 335.96"
/>
<path stroke="#316de6" vector-effect="non-scaling-stroke" d="
  M 560.10 368.90
  Q 557.85 373.18 555.65 377.43
  C 553.40 381.75 551.30 384.21 547.48 386.72
  Q 536.41 394.00 523.41 403.31
  C 520.05 405.72 514.86 408.44 511.21 411.82
  A 1.00 1.00 0.0 0 0 510.98 412.97
  C 514.49 420.66 519.30 428.62 522.42 435.08
  Q 526.52 443.54 530.54 452.05
  C 532.74 456.72 534.63 464.08 529.87 467.99
  C 527.40 470.02 523.15 472.21 519.52 472.74
  A 1.07 1.03 50.3 0 1 518.99 472.68
  Q 515.71 471.32 512.26 471.85
  C 499.87 473.77 487.42 473.76 474.99 475.04
  A 1.00 0.99 -1.4 0 0 474.10 475.97
  C 473.35 486.80 471.70 497.71 471.82 508.58
  C 471.94 518.06 472.00 523.23 467.20 530.38
  C 465.82 532.42 465.68 534.59 468.44 535.38"
/>
<path stroke="#1138a5" vector-effect="non-scaling-stroke" d="
  M 462.74 538.10
  Q 454.18 534.76 445.95 530.74
  C 438.28 527.00 430.41 523.97 423.71 520.76
  Q 418.94 518.48 415.07 517.19
  A 1.00 0.98 30.9 0 0 414.04 517.44
  Q 413.47 518.03 413.45 518.30"
/>
<path stroke="#316de6" vector-effect="non-scaling-stroke" d="
  M 411.29 520.25
  Q 411.27 519.86 411.41 519.54
  Q 411.69 518.88 411.00 519.10
  Q 407.02 520.37 404.50 523.26
  Q 395.84 533.17 388.60 545.80
  C 386.88 548.79 384.19 551.57 382.41 554.85
  A 1.00 1.00 0.0 0 0 382.56 556.02
  L 384.25 557.79"
/>
<path stroke="#1138a5" vector-effect="non-scaling-stroke" d="
  M 379.25 560.79
  L 375.11 559.20"
/>
<path stroke="#1550d2" vector-effect="non-scaling-stroke" d="
  M 375.11 559.20
  L 364.54 554.25"
/>
<path stroke="#1138a5" vector-effect="non-scaling-stroke" d="
  M 364.54 554.25
  Q 361.78 550.63 358.72 547.26
  C 357.15 545.53 356.70 543.11 354.46 541.48
  A 0.97 0.96 10.4 0 1 354.09 540.95
  C 353.16 537.75 350.85 535.02 349.64 532.94
  Q 344.11 523.43 337.80 514.33
  A 1.00 1.00 0.0 0 0 336.37 514.11
  L 333.09 516.63"
/>
<path stroke="#1550d2" vector-effect="non-scaling-stroke" d="
  M 333.09 516.63
  Q 324.81 518.76 318.41 524.37"
/>
<path stroke="#1138a5" vector-effect="non-scaling-stroke" d="
  M 318.41 524.37
  Q 310.12 529.68 301.24 534.20
  Q 299.34 535.16 296.56 535.52
  Q 293.19 535.96 290.01 537.16
  A 1.04 1.02 50.8 0 1 289.11 537.06
  C 285.26 534.58 281.43 536.17 279.00 531.29"
/>
<path stroke="#2866e2" vector-effect="non-scaling-stroke" d="
  M 410.93 239.27
  Q 410.21 241.53 410.56 245.14
  C 411.17 251.46 406.67 257.30 401.48 260.01
  A 1.00 0.94 -0.8 0 0 401.07 260.41
  Q 397.46 266.85 390.16 267.63
  Q 389.90 267.65 389.69 267.80
  L 387.18 269.55
  A 0.99 0.99 0.0 0 0 386.86 270.82
  Q 387.41 271.91 388.56 272.47
  A 0.51 0.51 0.0 0 1 388.73 273.25
  L 388.55 273.48
  A 1.00 1.00 0.0 0 1 387.03 273.54
  C 385.21 271.57 382.42 273.15 380.29 274.44
  A 1.02 1.02 0.0 0 0 379.81 275.42
  C 379.93 276.42 380.90 280.13 378.93 280.04
  A 0.64 0.64 0.0 0 1 378.32 279.39
  Q 378.37 274.39 376.76 279.10
  A 0.99 0.99 0.0 0 1 375.99 279.76
  C 373.21 280.26 372.58 282.48 370.96 283.91
  Q 369.82 284.90 368.77 286.06
  A 0.99 0.97 60.0 0 0 368.54 286.95
  Q 369.40 290.84 365.29 291.32
  Q 363.04 291.59 362.49 293.98
  C 362.06 295.80 353.48 301.53 351.48 303.62
  Q 351.29 303.81 351.03 303.88
  C 347.78 304.83 346.61 307.14 344.10 308.66
  Q 342.39 309.70 340.76 310.86
  A 1.10 1.00 -8.7 0 0 340.42 311.28
  C 337.84 317.33 333.19 321.10 327.89 324.77
  Q 324.80 326.91 322.51 328.72
  Q 317.37 332.80 311.53 335.83
  C 309.50 336.89 305.24 340.99 302.69 339.95
  A 1.01 0.99 -47.1 0 0 301.84 339.99
  Q 296.81 342.67 295.28 348.32
  A 1.06 0.96 82.2 0 1 294.90 348.87
  Q 290.44 352.09 286.75 356.13
  C 284.61 358.49 281.80 359.31 280.68 363.07
  A 1.00 0.96 80.1 0 1 280.35 363.56
  Q 276.60 366.62 273.44 370.28
  C 271.64 372.36 270.43 377.85 272.47 380.04
  A 1.00 1.00 0.0 0 1 272.74 380.61
  Q 273.26 385.19 276.03 388.83
  A 1.03 1.01 -57.8 0 1 276.21 389.66
  Q 275.35 393.50 275.82 396.14
  C 277.26 404.14 278.06 409.89 283.34 416.47
  C 284.28 417.64 284.13 419.51 284.63 420.95
  Q 288.38 431.87 293.31 442.29
  C 295.36 446.61 296.02 451.61 298.63 456.11
  C 301.03 460.24 301.55 465.19 302.63 469.75
  C 303.81 474.75 307.24 478.34 308.41 483.80
  Q 308.46 483.99 308.74 484.42
  Q 310.57 487.18 309.65 483.99
  L 304.47 465.94
  Q 303.72 463.30 305.37 465.49
  Q 306.17 466.54 306.33 467.97
  A 1.00 0.98 -72.1 0 0 306.64 468.59
  Q 312.60 474.22 313.46 482.49
  A 1.00 0.98 -67.5 0 0 313.66 482.99
  Q 319.05 490.10 319.17 498.73
  C 319.23 503.37 317.29 509.50 318.14 515.64
  A 1.01 1.00 -34.5 0 1 318.02 516.28
  Q 315.39 520.76 311.31 523.80
  C 307.32 526.79 301.85 526.88 298.46 530.54
  C 292.89 536.54 285.17 535.94 279.00 531.29"
/>
<path stroke="#183fa8" vector-effect="non-scaling-stroke" d="
  M 279.00 531.29
  Q 275.64 527.27 274.07 522.29
  A 0.97 0.93 43.9 0 1 274.05 521.75
  C 274.79 518.77 273.54 515.98 273.52 513.58
  C 273.47 508.17 273.97 502.83 272.14 497.39
  Q 271.24 494.72 271.31 492.48
  Q 271.56 485.26 272.68 478.25
  A 1.01 1.00 86.0 0 0 271.40 477.13
  Q 268.02 478.17 264.76 476.69
  Q 262.24 475.55 259.51 475.70
  C 253.67 476.04 242.89 476.56 237.79 473.56
  A 1.02 1.00 58.0 0 0 237.21 473.42
  Q 223.72 474.37 214.54 466.19
  Q 209.73 461.91 213.46 455.75"
/>
<path stroke="#82a1e0" vector-effect="non-scaling-stroke" d="
  M 440.96 311.25
  L 435.19 311.54
  A 1.01 0.99 -68.1 0 0 434.55 311.82
  L 393.00 352.04"
/>
<path stroke="#1550d2" vector-effect="non-scaling-stroke" d="
  M 393.00 352.04
  Q 391.95 351.53 390.82 351.69
  A 0.99 0.95 -71.6 0 0 390.27 351.98
  L 378.21 363.97
  A 0.99 0.94 18.7 0 1 377.59 364.26
  C 373.70 364.60 370.11 365.55 366.27 364.49
  C 362.75 363.51 359.77 363.16 356.72 360.79
  C 352.07 357.17 346.62 355.50 341.50 352.65
  Q 338.74 351.12 335.88 350.42
  C 330.12 349.02 325.39 346.60 319.75 346.72
  A 1.07 1.06 -24.3 0 1 319.05 346.46
  C 318.17 345.65 314.94 345.84 313.42 345.08
  A 1.03 1.01 -50.6 0 0 312.36 345.19
  L 311.96 345.50"
/>
<path stroke="#82a1e0" vector-effect="non-scaling-stroke" d="
  M 311.96 345.50
  Q 304.89 343.85 300.09 348.06
  Q 295.48 352.11 278.76 368.98
  C 271.40 376.41 274.12 382.02 280.85 388.77
  Q 310.76 418.80 340.27 449.23
  C 346.57 455.73 350.45 463.17 361.25 458.96"
/>
<path stroke="#1550d2" vector-effect="non-scaling-stroke" d="
  M 361.25 458.96
  C 365.85 460.41 373.79 460.37 378.36 458.84
  Q 382.24 457.55 386.03 456.00
  Q 386.20 455.93 386.03 455.84
  L 385.88 455.77
  Q 385.72 455.68 386.02 455.53
  L 390.81 453.00
  A 0.33 0.33 0.0 0 1 391.21 453.07
  C 391.78 453.71 405.18 445.38 406.57 444.43
  C 415.27 438.45 423.59 428.11 430.45 422.20
  Q 434.22 418.96 436.80 416.20
  C 439.84 412.94 443.24 409.99 446.52 406.27
  C 454.85 396.82 464.15 387.81 470.01 376.54
  C 476.41 364.23 483.31 352.98 476.34 339.11
  A 1.05 1.02 -89.3 0 0 475.94 338.69
  Q 474.97 338.13 474.77 337.69
  C 473.61 335.11 469.61 332.71 467.52 330.97
  C 465.81 329.54 464.87 327.47 462.76 326.14
  A 0.96 0.94 -86.9 0 1 462.40 325.73
  Q 460.53 321.94 457.42 319.18
  C 456.23 318.13 455.75 316.52 453.69 316.20
  A 1.07 1.00 -15.4 0 1 453.12 315.90
  L 450.41 313.04
  A 1.02 1.00 66.8 0 0 449.63 312.72
  C 446.08 312.92 445.76 307.75 440.96 311.25"
/>
<path stroke="#7692d4" vector-effect="non-scaling-stroke" d="
  M 361.25 458.96
  Q 367.54 453.41 373.52 447.52
  Q 399.96 421.54 426.13 395.27
  C 438.31 383.05 451.25 371.26 463.73 359.16
  C 470.67 352.43 474.81 349.70 473.09 340.51
  A 1.04 1.01 -73.6 0 0 472.81 339.98
  L 444.91 311.98
  A 0.99 0.97 -18.8 0 0 444.33 311.70
  L 440.96 311.25"
/>
<path stroke="#7692d4" vector-effect="non-scaling-stroke" d="
  M 311.96 345.50
  Q 333.90 366.60 354.85 388.69
  A 1.01 1.01 0.0 0 0 356.29 388.71
  L 393.00 352.04"
/>
</g>
<path fill="#417aee" d="
  M 472.54 217.25
  C 470.07 221.82 464.63 218.44 461.02 217.37
  Q 458.42 216.60 455.99 217.80
  C 440.75 225.33 426.26 232.51 410.93 239.27
  Q 400.72 224.30 391.15 209.08
  C 386.72 202.04 376.41 184.31 366.75 198.53
  Q 354.87 216.01 348.51 225.74
  C 345.12 230.93 341.89 235.00 337.97 239.29
  A 1.01 1.00 -54.0 0 1 336.74 239.49
  Q 318.16 228.89 299.05 220.08
  Q 284.55 213.39 280.17 226.44
  C 278.63 231.04 279.51 236.97 279.15 241.43
  Q 277.84 257.73 276.20 276.63
  A 0.99 0.98 -88.1 0 1 275.23 277.54
  Q 254.33 277.97 232.20 278.49
  Q 223.71 278.69 218.97 285.38
  C 215.97 289.63 219.47 295.72 221.72 300.40
  Q 227.55 312.57 233.66 324.60
  Q 235.29 327.80 236.97 331.65
  Q 238.40 334.93 240.05 338.50
  A 1.01 0.99 -28.3 0 1 239.66 339.77
  Q 235.01 342.62 231.26 346.56
  A 1.00 0.99 -36.8 0 0 231.09 347.69
  Q 233.30 352.18 233.49 357.17
  A 1.01 0.98 -65.3 0 0 233.69 357.74
  C 235.48 360.13 234.96 368.21 235.57 374.26
  C 236.42 382.63 233.88 389.77 233.11 397.92
  Q 232.81 401.06 231.92 404.65
  A 1.00 0.98 25.5 0 0 232.30 405.70
  L 239.19 410.68
  A 1.00 0.99 30.7 0 1 239.51 411.92
  C 234.20 423.14 229.28 434.50 223.32 445.40
  Q 218.45 454.28 217.06 464.42
  A 0.99 0.99 0.0 0 1 216.35 465.25
  L 215.14 465.59
  A 1.00 1.00 0.0 0 1 213.90 464.87
  Q 212.76 460.33 213.46 455.75
  C 217.44 444.35 223.15 434.33 228.23 423.48
  Q 230.55 418.53 233.36 413.77
  A 1.00 0.99 33.4 0 0 233.08 412.45
  L 221.41 404.09
  Q 209.70 393.23 195.75 385.54
  C 186.13 377.13 189.73 367.52 197.74 360.06
  Q 200.24 357.74 204.82 355.26
  C 214.65 349.96 222.85 343.48 232.15 337.48
  A 1.00 0.99 -28.8 0 0 232.52 336.23
  Q 229.88 330.45 227.09 324.55
  C 224.86 319.84 220.90 313.40 218.53 307.32
  C 216.74 302.71 214.44 298.84 212.41 294.49
  C 212.01 293.62 211.42 294.01 210.80 294.37
  Q 208.88 278.37 223.76 272.80
  Q 226.35 271.83 233.53 271.78
  C 237.19 271.76 240.69 270.59 244.31 270.36
  Q 255.76 269.61 268.47 270.20
  A 1.00 0.99 -88.6 0 0 269.51 269.20
  Q 269.52 257.43 271.04 245.75
  Q 272.04 246.25 272.22 245.51
  Q 274.99 234.03 276.10 222.25
  C 277.00 212.75 286.36 211.42 294.31 211.59
  L 315.50 221.54
  L 318.00 222.71
  L 325.25 226.29
  Q 326.32 227.31 327.75 227.50
  Q 328.97 228.82 330.75 228.71
  L 333.50 229.79
  L 335.82 232.17
  A 1.00 0.99 -52.8 0 0 337.41 231.95
  C 340.26 226.77 343.91 223.00 346.64 218.15
  Q 348.61 214.66 351.21 211.64
  C 355.57 206.56 358.48 201.09 362.29 195.80
  A 1.01 0.98 -78.8 0 1 362.84 195.42
  C 364.74 194.89 365.71 192.72 367.08 191.56
  A 1.00 1.00 0.0 0 0 367.24 190.20
  L 366.94 189.80
  C 379.49 184.88 386.21 190.85 393.38 201.20
  Q 401.63 213.11 408.83 225.68
  Q 410.70 228.95 412.65 230.31
  A 1.01 1.00 52.3 0 0 413.57 230.43
  C 419.65 228.22 426.23 224.33 430.26 222.37
  Q 436.76 219.20 449.58 212.84
  C 457.22 209.05 467.18 209.86 472.54 217.25
  Z"
/>
<path fill="#2f6ce5" d="
  M 366.94 189.80
  L 367.24 190.20
  A 1.00 1.00 0.0 0 1 367.08 191.56
  C 365.71 192.72 364.74 194.89 362.84 195.42
  A 1.01 0.98 -78.8 0 0 362.29 195.80
  C 358.48 201.09 355.57 206.56 351.21 211.64
  Q 348.61 214.66 346.64 218.15
  C 343.91 223.00 340.26 226.77 337.41 231.95
  A 1.00 0.99 -52.8 0 1 335.82 232.17
  L 333.50 229.79
  L 335.52 230.35
  A 1.02 1.01 26.7 0 0 336.57 230.01
  Q 342.39 222.77 346.80 214.63
  C 348.41 211.66 351.07 209.54 352.78 206.39
  C 356.75 199.07 360.10 194.10 366.94 189.80
  Z"
/>
<path fill="#2f6ce5" d="
  M 410.93 239.27
  Q 410.21 241.53 410.56 245.14
  C 411.17 251.46 406.67 257.30 401.48 260.01
  A 1.00 0.94 -0.8 0 0 401.07 260.41
  Q 397.46 266.85 390.16 267.63
  Q 389.90 267.65 389.69 267.80
  L 387.18 269.55
  A 0.99 0.99 0.0 0 0 386.86 270.82
  Q 387.41 271.91 388.56 272.47
  A 0.51 0.51 0.0 0 1 388.73 273.25
  L 388.55 273.48
  A 1.00 1.00 0.0 0 1 387.03 273.54
  C 385.21 271.57 382.42 273.15 380.29 274.44
  A 1.02 1.02 0.0 0 0 379.81 275.42
  C 379.93 276.42 380.90 280.13 378.93 280.04
  A 0.64 0.64 0.0 0 1 378.32 279.39
  Q 378.37 274.39 376.76 279.10
  A 0.99 0.99 0.0 0 1 375.99 279.76
  C 373.21 280.26 372.58 282.48 370.96 283.91
  Q 369.82 284.90 368.77 286.06
  A 0.99 0.97 60.0 0 0 368.54 286.95
  Q 369.40 290.84 365.29 291.32
  Q 363.04 291.59 362.49 293.98
  C 362.06 295.80 353.48 301.53 351.48 303.62
  Q 351.29 303.81 351.03 303.88
  C 347.78 304.83 346.61 307.14 344.10 308.66
  Q 342.39 309.70 340.76 310.86
  A 1.10 1.00 -8.7 0 0 340.42 311.28
  C 337.84 317.33 333.19 321.10 327.89 324.77
  Q 324.80 326.91 322.51 328.72
  Q 317.37 332.80 311.53 335.83
  C 309.50 336.89 305.24 340.99 302.69 339.95
  A 1.01 0.99 -47.1 0 0 301.84 339.99
  Q 296.81 342.67 295.28 348.32
  A 1.06 0.96 82.2 0 1 294.90 348.87
  Q 290.44 352.09 286.75 356.13
  C 284.61 358.49 281.80 359.31 280.68 363.07
  A 1.00 0.96 80.1 0 1 280.35 363.56
  Q 276.60 366.62 273.44 370.28
  C 271.64 372.36 270.43 377.85 272.47 380.04
  A 1.00 1.00 0.0 0 1 272.74 380.61
  Q 273.26 385.19 276.03 388.83
  A 1.03 1.01 -57.8 0 1 276.21 389.66
  Q 275.35 393.50 275.82 396.14
  C 277.26 404.14 278.06 409.89 283.34 416.47
  C 284.28 417.64 284.13 419.51 284.63 420.95
  Q 288.38 431.87 293.31 442.29
  C 295.36 446.61 296.02 451.61 298.63 456.11
  C 301.03 460.24 301.55 465.19 302.63 469.75
  C 303.81 474.75 307.24 478.34 308.41 483.80
  Q 308.46 483.99 308.74 484.42
  Q 310.57 487.18 309.65 483.99
  L 304.47 465.94
  Q 303.72 463.30 305.37 465.49
  Q 306.17 466.54 306.33 467.97
  A 1.00 0.98 -72.1 0 0 306.64 468.59
  Q 312.60 474.22 313.46 482.49
  A 1.00 0.98 -67.5 0 0 313.66 482.99
  Q 319.05 490.10 319.17 498.73
  C 319.23 503.37 317.29 509.50 318.14 515.64
  A 1.01 1.00 -34.5 0 1 318.02 516.28
  Q 315.39 520.76 311.31 523.80
  C 307.32 526.79 301.85 526.88 298.46 530.54
  C 292.89 536.54 285.17 535.94 279.00 531.29
  Q 275.64 527.27 274.07 522.29
  A 0.97 0.93 43.9 0 1 274.05 521.75
  C 274.79 518.77 273.54 515.98 273.52 513.58
  C 273.47 508.17 273.97 502.83 272.14 497.39
  Q 271.24 494.72 271.31 492.48
  Q 271.56 485.26 272.68 478.25
  A 1.01 1.00 86.0 0 0 271.40 477.13
  Q 268.02 478.17 264.76 476.69
  Q 262.24 475.55 259.51 475.70
  C 253.67 476.04 242.89 476.56 237.79 473.56
  A 1.02 1.00 58.0 0 0 237.21 473.42
  Q 223.72 474.37 214.54 466.19
  Q 209.73 461.91 213.46 455.75
  Q 212.76 460.33 213.90 464.87
  A 1.00 1.00 0.0 0 0 215.14 465.59
  L 216.35 465.25
  A 0.99 0.99 0.0 0 0 217.06 464.42
  Q 218.45 454.28 223.32 445.40
  C 229.28 434.50 234.20 423.14 239.51 411.92
  A 1.00 0.99 30.7 0 0 239.19 410.68
  L 232.30 405.70
  A 1.00 0.98 25.5 0 1 231.92 404.65
  Q 232.81 401.06 233.11 397.92
  C 233.88 389.77 236.42 382.63 235.57 374.26
  C 234.96 368.21 235.48 360.13 233.69 357.74
  A 1.01 0.98 -65.3 0 1 233.49 357.17
  Q 233.30 352.18 231.09 347.69
  A 1.00 0.99 -36.8 0 1 231.26 346.56
  Q 235.01 342.62 239.66 339.77
  A 1.01 0.99 -28.3 0 0 240.05 338.50
  Q 238.40 334.93 236.97 331.65
  Q 235.29 327.80 233.66 324.60
  Q 227.55 312.57 221.72 300.40
  C 219.47 295.72 215.97 289.63 218.97 285.38
  Q 223.71 278.69 232.20 278.49
  Q 254.33 277.97 275.23 277.54
  A 0.99 0.98 -88.1 0 0 276.20 276.63
  Q 277.84 257.73 279.15 241.43
  C 279.51 236.97 278.63 231.04 280.17 226.44
  Q 284.55 213.39 299.05 220.08
  Q 318.16 228.89 336.74 239.49
  A 1.01 1.00 -54.0 0 0 337.97 239.29
  C 341.89 235.00 345.12 230.93 348.51 225.74
  Q 354.87 216.01 366.75 198.53
  C 376.41 184.31 386.72 202.04 391.15 209.08
  Q 400.72 224.30 410.93 239.27
  Z"
/>
<path fill="#2f6ce5" d="
  M 294.31 211.59
  C 286.36 211.42 277.00 212.75 276.10 222.25
  Q 274.99 234.03 272.22 245.51
  Q 272.04 246.25 271.04 245.75
  Q 271.73 235.25 272.43 224.74
  C 272.55 222.89 275.89 217.29 277.55 215.56
  Q 284.14 208.70 294.31 211.59
  Z"
/>
<path fill="#215fde" d="
  M 472.54 217.25
  C 478.31 223.20 476.93 236.44 477.73 243.74
  Q 479.12 256.47 479.37 269.27
  A 1.00 1.00 0.0 0 0 480.35 270.25
  L 482.25 270.29
  Q 481.62 270.62 480.95 270.74
  A 1.00 1.00 0.0 0 0 480.16 271.95
  Q 480.44 273.19 479.92 274.23
  A 1.00 1.00 0.0 0 0 480.71 275.67
  Q 486.54 276.27 492.56 276.90
  C 502.61 277.94 514.23 277.91 523.49 279.28
  C 525.16 279.53 533.61 283.62 533.79 278.50
  Q 536.81 281.58 538.40 286.33
  C 535.29 286.72 535.03 288.06 533.96 290.40
  C 529.42 300.30 525.53 310.97 521.12 320.35
  Q 517.99 327.01 514.83 333.68
  A 1.02 1.02 0.0 0 0 514.78 334.42
  Q 515.55 336.78 518.00 335.96
  C 527.23 342.66 537.09 348.21 546.36 354.74
  C 549.25 356.77 552.24 358.20 554.52 360.84
  Q 557.82 364.67 560.10 368.90
  Q 557.85 373.18 555.65 377.43
  C 553.40 381.75 551.30 384.21 547.48 386.72
  Q 536.41 394.00 523.41 403.31
  C 520.05 405.72 514.86 408.44 511.21 411.82
  A 1.00 1.00 0.0 0 0 510.98 412.97
  C 514.49 420.66 519.30 428.62 522.42 435.08
  Q 526.52 443.54 530.54 452.05
  C 532.74 456.72 534.63 464.08 529.87 467.99
  C 527.40 470.02 523.15 472.21 519.52 472.74
  A 1.07 1.03 50.3 0 1 518.99 472.68
  Q 515.71 471.32 512.26 471.85
  C 499.87 473.77 487.42 473.76 474.99 475.04
  A 1.00 0.99 -1.4 0 0 474.10 475.97
  C 473.35 486.80 471.70 497.71 471.82 508.58
  C 471.94 518.06 472.00 523.23 467.20 530.38
  C 465.82 532.42 465.68 534.59 468.44 535.38
  L 462.74 538.10
  Q 454.18 534.76 445.95 530.74
  C 438.28 527.00 430.41 523.97 423.71 520.76
  Q 418.94 518.48 415.07 517.19
  A 1.00 0.98 30.9 0 0 414.04 517.44
  Q 413.47 518.03 413.45 518.30
  Q 412.18 519.86 411.29 520.25
  Q 411.27 519.86 411.41 519.54
  Q 411.69 518.88 411.00 519.10
  Q 407.02 520.37 404.50 523.26
  Q 395.84 533.17 388.60 545.80
  C 386.88 548.79 384.19 551.57 382.41 554.85
  A 1.00 1.00 0.0 0 0 382.56 556.02
  L 384.25 557.79
  Q 382.05 559.80 379.25 560.79
  L 375.11 559.20
  L 364.54 554.25
  Q 361.78 550.63 358.72 547.26
  C 357.15 545.53 356.70 543.11 354.46 541.48
  A 0.97 0.96 10.4 0 1 354.09 540.95
  C 353.16 537.75 350.85 535.02 349.64 532.94
  Q 344.11 523.43 337.80 514.33
  A 1.00 1.00 0.0 0 0 336.37 514.11
  L 333.09 516.63
  Q 324.81 518.76 318.41 524.37
  Q 310.12 529.68 301.24 534.20
  Q 299.34 535.16 296.56 535.52
  Q 293.19 535.96 290.01 537.16
  A 1.04 1.02 50.8 0 1 289.11 537.06
  C 285.26 534.58 281.43 536.17 279.00 531.29
  C 285.17 535.94 292.89 536.54 298.46 530.54
  C 301.85 526.88 307.32 526.79 311.31 523.80
  Q 315.39 520.76 318.02 516.28
  A 1.01 1.00 -34.5 0 0 318.14 515.64
  C 317.29 509.50 319.23 503.37 319.17 498.73
  Q 319.05 490.10 313.66 482.99
  A 1.00 0.98 -67.5 0 1 313.46 482.49
  Q 312.60 474.22 306.64 468.59
  A 1.00 0.98 -72.1 0 1 306.33 467.97
  Q 306.17 466.54 305.37 465.49
  Q 303.72 463.30 304.47 465.94
  L 309.65 483.99
  Q 310.57 487.18 308.74 484.42
  Q 308.46 483.99 308.41 483.80
  C 307.24 478.34 303.81 474.75 302.63 469.75
  C 301.55 465.19 301.03 460.24 298.63 456.11
  C 296.02 451.61 295.36 446.61 293.31 442.29
  Q 288.38 431.87 284.63 420.95
  C 284.13 419.51 284.28 417.64 283.34 416.47
  C 278.06 409.89 277.26 404.14 275.82 396.14
  Q 275.35 393.50 276.21 389.66
  A 1.03 1.01 -57.8 0 0 276.03 388.83
  Q 273.26 385.19 272.74 380.61
  A 1.00 1.00 0.0 0 0 272.47 380.04
  C 270.43 377.85 271.64 372.36 273.44 370.28
  Q 276.60 366.62 280.35 363.56
  A 1.00 0.96 80.1 0 0 280.68 363.07
  C 281.80 359.31 284.61 358.49 286.75 356.13
  Q 290.44 352.09 294.90 348.87
  A 1.06 0.96 82.2 0 0 295.28 348.32
  Q 296.81 342.67 301.84 339.99
  A 1.01 0.99 -47.1 0 1 302.69 339.95
  C 305.24 340.99 309.50 336.89 311.53 335.83
  Q 317.37 332.80 322.51 328.72
  Q 324.80 326.91 327.89 324.77
  C 333.19 321.10 337.84 317.33 340.42 311.28
  A 1.10 1.00 -8.7 0 1 340.76 310.86
  Q 342.39 309.70 344.10 308.66
  C 346.61 307.14 347.78 304.83 351.03 303.88
  Q 351.29 303.81 351.48 303.62
  C 353.48 301.53 362.06 295.80 362.49 293.98
  Q 363.04 291.59 365.29 291.32
  Q 369.40 290.84 368.54 286.95
  A 0.99 0.97 60.0 0 1 368.77 286.06
  Q 369.82 284.90 370.96 283.91
  C 372.58 282.48 373.21 280.26 375.99 279.76
  A 0.99 0.99 0.0 0 0 376.76 279.10
  Q 378.37 274.39 378.32 279.39
  A 0.64 0.64 0.0 0 0 378.93 280.04
  C 380.90 280.13 379.93 276.42 379.81 275.42
  A 1.02 1.02 0.0 0 1 380.29 274.44
  C 382.42 273.15 385.21 271.57 387.03 273.54
  A 1.00 1.00 0.0 0 0 388.55 273.48
  L 388.73 273.25
  A 0.51 0.51 0.0 0 0 388.56 272.47
  Q 387.41 271.91 386.86 270.82
  A 0.99 0.99 0.0 0 1 387.18 269.55
  L 389.69 267.80
  Q 389.90 267.65 390.16 267.63
  Q 397.46 266.85 401.07 260.41
  A 1.00 0.94 -0.8 0 1 401.48 260.01
  C 406.67 257.30 411.17 251.46 410.56 245.14
  Q 410.21 241.53 410.93 239.27
  C 426.26 232.51 440.75 225.33 455.99 217.80
  Q 458.42 216.60 461.02 217.37
  C 464.63 218.44 470.07 221.82 472.54 217.25
  Z
  M 440.96 311.25
  L 435.19 311.54
  A 1.01 0.99 -68.1 0 0 434.55 311.82
  L 393.00 352.04
  Q 391.95 351.53 390.82 351.69
  A 0.99 0.95 -71.6 0 0 390.27 351.98
  L 378.21 363.97
  A 0.99 0.94 18.7 0 1 377.59 364.26
  C 373.70 364.60 370.11 365.55 366.27 364.49
  C 362.75 363.51 359.77 363.16 356.72 360.79
  C 352.07 357.17 346.62 355.50 341.50 352.65
  Q 338.74 351.12 335.88 350.42
  C 330.12 349.02 325.39 346.60 319.75 346.72
  A 1.07 1.06 -24.3 0 1 319.05 346.46
  C 318.17 345.65 314.94 345.84 313.42 345.08
  A 1.03 1.01 -50.6 0 0 312.36 345.19
  L 311.96 345.50
  Q 304.89 343.85 300.09 348.06
  Q 295.48 352.11 278.76 368.98
  C 271.40 376.41 274.12 382.02 280.85 388.77
  Q 310.76 418.80 340.27 449.23
  C 346.57 455.73 350.45 463.17 361.25 458.96
  C 365.85 460.41 373.79 460.37 378.36 458.84
  Q 382.24 457.55 386.03 456.00
  Q 386.20 455.93 386.03 455.84
  L 385.88 455.77
  Q 385.72 455.68 386.02 455.53
  L 390.81 453.00
  A 0.33 0.33 0.0 0 1 391.21 453.07
  C 391.78 453.71 405.18 445.38 406.57 444.43
  C 415.27 438.45 423.59 428.11 430.45 422.20
  Q 434.22 418.96 436.80 416.20
  C 439.84 412.94 443.24 409.99 446.52 406.27
  C 454.85 396.82 464.15 387.81 470.01 376.54
  C 476.41 364.23 483.31 352.98 476.34 339.11
  A 1.05 1.02 -89.3 0 0 475.94 338.69
  Q 474.97 338.13 474.77 337.69
  C 473.61 335.11 469.61 332.71 467.52 330.97
  C 465.81 329.54 464.87 327.47 462.76 326.14
  A 0.96 0.94 -86.9 0 1 462.40 325.73
  Q 460.53 321.94 457.42 319.18
  C 456.23 318.13 455.75 316.52 453.69 316.20
  A 1.07 1.00 -15.4 0 1 453.12 315.90
  L 450.41 313.04
  A 1.02 1.00 66.8 0 0 449.63 312.72
  C 446.08 312.92 445.76 307.75 440.96 311.25
  Z"
/>
<path fill="#01116b" fill-opacity="0.996" d="
  M 315.50 221.54
  Q 317.19 221.24 318.00 222.71
  L 315.50 221.54
  Z"
/>
<path fill="#01116b" fill-opacity="0.996" d="
  M 325.25 226.29
  Q 327.14 225.70 327.75 227.50
  Q 326.32 227.31 325.25 226.29
  Z"
/>
<path fill="#01116b" fill-opacity="0.996" d="
  M 327.75 227.50
  Q 329.42 227.63 330.75 228.71
  Q 328.97 228.82 327.75 227.50
  Z"
/>
<path fill="#417aee" d="
  M 533.79 278.50
  C 533.61 283.62 525.16 279.53 523.49 279.28
  C 514.23 277.91 502.61 277.94 492.56 276.90
  Q 486.54 276.27 480.71 275.67
  A 1.00 1.00 0.0 0 1 479.92 274.23
  Q 480.44 273.19 480.16 271.95
  A 1.00 1.00 0.0 0 1 480.95 270.74
  Q 481.62 270.62 482.25 270.29
  Q 498.00 269.42 513.59 271.51
  C 521.96 272.63 527.41 271.58 533.79 278.50
  Z"
/>
<path fill="#417aee" d="
  M 538.40 286.33
  Q 537.07 301.11 529.73 313.74
  C 525.21 321.51 522.10 328.60 518.00 335.96
  Q 515.55 336.78 514.78 334.42
  A 1.02 1.02 0.0 0 1 514.83 333.68
  Q 517.99 327.01 521.12 320.35
  C 525.53 310.97 529.42 300.30 533.96 290.40
  C 535.03 288.06 535.29 286.72 538.40 286.33
  Z"
/>
<path fill="#01116b" fill-opacity="0.996" d="
  M 195.75 385.54
  Q 201.75 391.97 204.24 393.25
  Q 213.27 397.94 221.41 404.09
  L 233.08 412.45
  A 1.00 0.99 33.4 0 1 233.36 413.77
  Q 230.55 418.53 228.23 423.48
  C 223.15 434.33 217.44 444.35 213.46 455.75
  Q 209.73 461.91 214.54 466.19
  Q 223.72 474.37 237.21 473.42
  A 1.02 1.00 58.0 0 1 237.79 473.56
  C 242.89 476.56 253.67 476.04 259.51 475.70
  Q 262.24 475.55 264.76 476.69
  Q 268.02 478.17 271.40 477.13
  A 1.01 1.00 86.0 0 1 272.68 478.25
  Q 271.56 485.26 271.31 492.48
  Q 271.24 494.72 272.14 497.39
  C 273.97 502.83 273.47 508.17 273.52 513.58
  C 273.54 515.98 274.79 518.77 274.05 521.75
  A 0.97 0.93 43.9 0 0 274.07 522.29
  Q 275.64 527.27 279.00 531.29
  C 281.43 536.17 285.26 534.58 289.11 537.06
  A 1.04 1.02 50.8 0 0 290.01 537.16
  Q 293.19 535.96 296.56 535.52
  Q 299.34 535.16 301.24 534.20
  Q 310.12 529.68 318.41 524.37
  C 323.36 523.84 329.62 520.47 333.09 516.63
  L 336.37 514.11
  A 1.00 1.00 0.0 0 1 337.80 514.33
  Q 344.11 523.43 349.64 532.94
  C 350.85 535.02 353.16 537.75 354.09 540.95
  A 0.97 0.96 10.4 0 0 354.46 541.48
  C 356.70 543.11 357.15 545.53 358.72 547.26
  Q 361.78 550.63 364.54 554.25
  Q 368.30 559.53 375.11 559.20
  L 379.25 560.79
  C 368.36 564.04 360.77 555.43 355.54 547.33
  Q 346.03 532.59 335.93 518.40
  A 1.00 1.00 0.0 0 0 334.55 518.15
  Q 330.50 520.91 326.57 523.83
  C 324.35 525.47 319.87 526.05 317.25 527.30
  C 313.35 529.15 309.89 531.89 305.96 533.44
  Q 303.46 534.43 301.00 535.53
  C 297.70 537.00 294.84 537.55 291.43 538.40
  C 288.16 539.22 284.94 537.78 281.94 536.68
  C 275.24 534.22 273.02 525.40 272.53 518.96
  C 271.85 509.96 271.19 501.03 270.15 492.06
  Q 269.51 486.62 269.97 481.10
  A 1.00 0.99 -87.9 0 0 268.97 480.02
  Q 263.32 480.04 257.42 478.77
  C 247.55 476.65 236.49 479.94 227.06 476.87
  C 224.61 476.07 222.03 475.75 219.89 474.50
  Q 206.92 466.93 212.51 451.49
  Q 215.24 443.96 226.22 423.79
  C 227.83 420.83 228.96 417.00 230.95 413.79
  A 1.00 1.00 0.0 0 0 230.65 412.43
  Q 226.30 409.56 221.88 406.74
  C 216.41 403.25 210.38 398.69 204.32 395.06
  C 200.52 392.78 193.85 388.29 191.53 384.60
  C 187.84 378.72 186.92 370.47 191.49 364.49
  C 193.45 361.93 196.21 359.87 198.68 357.56
  C 205.16 351.50 213.54 347.53 220.60 342.21
  Q 222.10 341.08 225.19 339.30
  Q 227.49 337.98 229.52 336.21
  A 1.01 1.00 -27.3 0 0 229.84 335.22
  L 228.93 331.49
  Q 228.88 331.29 228.76 331.13
  Q 227.97 330.06 226.81 327.69
  Q 215.29 304.24 210.80 294.37
  C 211.42 294.01 212.01 293.62 212.41 294.49
  C 214.44 298.84 216.74 302.71 218.53 307.32
  C 220.90 313.40 224.86 319.84 227.09 324.55
  Q 229.88 330.45 232.52 336.23
  A 1.00 0.99 -28.8 0 1 232.15 337.48
  C 222.85 343.48 214.65 349.96 204.82 355.26
  Q 200.24 357.74 197.74 360.06
  C 189.73 367.52 186.13 377.13 195.75 385.54
  Z"
/>
<path fill="#0941c5" d="
  M 361.25 458.96
  Q 367.54 453.41 373.52 447.52
  Q 399.96 421.54 426.13 395.27
  C 438.31 383.05 451.25 371.26 463.73 359.16
  C 470.67 352.43 474.81 349.70 473.09 340.51
  A 1.04 1.01 -73.6 0 0 472.81 339.98
  L 444.91 311.98
  A 0.99 0.97 -18.8 0 0 444.33 311.70
  L 440.96 311.25
  C 445.76 307.75 446.08 312.92 449.63 312.72
  A 1.02 1.00 66.8 0 1 450.41 313.04
  L 453.12 315.90
  A 1.07 1.00 -15.4 0 0 453.69 316.20
  C 455.75 316.52 456.23 318.13 457.42 319.18
  Q 460.53 321.94 462.40 325.73
  A 0.96 0.94 -86.9 0 0 462.76 326.14
  C 464.87 327.47 465.81 329.54 467.52 330.97
  C 469.61 332.71 473.61 335.11 474.77 337.69
  Q 474.97 338.13 475.94 338.69
  A 1.05 1.02 -89.3 0 1 476.34 339.11
  C 483.31 352.98 476.41 364.23 470.01 376.54
  C 464.15 387.81 454.85 396.82 446.52 406.27
  C 443.24 409.99 439.84 412.94 436.80 416.20
  Q 434.22 418.96 430.45 422.20
  C 423.59 428.11 415.27 438.45 406.57 444.43
  C 405.18 445.38 391.78 453.71 391.21 453.07
  A 0.33 0.33 0.0 0 0 390.81 453.00
  L 386.02 455.53
  Q 385.72 455.68 385.88 455.77
  L 386.03 455.84
  Q 386.20 455.93 386.03 456.00
  Q 382.24 457.55 378.36 458.84
  C 373.79 460.37 365.85 460.41 361.25 458.96
  Z"
/>
<path fill="#e2e2e2" d="
  M 440.96 311.25
  L 444.33 311.70
  A 0.99 0.97 -18.8 0 1 444.91 311.98
  L 472.81 339.98
  A 1.04 1.01 -73.6 0 1 473.09 340.51
  C 474.81 349.70 470.67 352.43 463.73 359.16
  C 451.25 371.26 438.31 383.05 426.13 395.27
  Q 399.96 421.54 373.52 447.52
  Q 367.54 453.41 361.25 458.96
  C 350.45 463.17 346.57 455.73 340.27 449.23
  Q 310.76 418.80 280.85 388.77
  C 274.12 382.02 271.40 376.41 278.76 368.98
  Q 295.48 352.11 300.09 348.06
  Q 304.89 343.85 311.96 345.50
  Q 333.90 366.60 354.85 388.69
  A 1.01 1.01 0.0 0 0 356.29 388.71
  L 393.00 352.04
  L 434.55 311.82
  A 1.01 0.99 -68.1 0 1 435.19 311.54
  L 440.96 311.25
  Z"
/>
<path fill="#0941c5" d="
  M 393.00 352.04
  L 356.29 388.71
  A 1.01 1.01 0.0 0 1 354.85 388.69
  Q 333.90 366.60 311.96 345.50
  L 312.36 345.19
  A 1.03 1.01 -50.6 0 1 313.42 345.08
  C 314.94 345.84 318.17 345.65 319.05 346.46
  A 1.07 1.06 -24.3 0 0 319.75 346.72
  C 325.39 346.60 330.12 349.02 335.88 350.42
  Q 338.74 351.12 341.50 352.65
  C 346.62 355.50 352.07 357.17 356.72 360.79
  C 359.77 363.16 362.75 363.51 366.27 364.49
  C 370.11 365.55 373.70 364.60 377.59 364.26
  A 0.99 0.94 18.7 0 0 378.21 363.97
  L 390.27 351.98
  A 0.99 0.95 -71.6 0 1 390.82 351.69
  Q 391.95 351.53 393.00 352.04
  Z"
/>
<path fill="#417aee" d="
  M 560.10 368.90
  C 566.88 382.81 546.63 394.90 536.03 400.87
  C 533.46 402.32 531.23 404.65 528.54 406.27
  C 524.61 408.62 522.08 410.47 518.83 412.67
  A 1.01 1.00 -31.9 0 0 518.52 413.99
  C 521.74 419.71 524.32 426.06 527.32 431.69
  Q 532.82 441.98 537.20 452.80
  Q 538.39 455.75 538.22 458.46
  C 536.69 483.09 510.82 476.08 495.81 478.10
  Q 487.88 479.17 479.87 479.33
  A 0.99 0.99 0.0 0 0 478.90 480.30
  Q 478.79 483.99 478.76 487.61
  Q 478.74 491.29 478.39 495.35
  Q 477.69 503.58 476.76 520.75
  Q 476.27 529.81 468.44 535.38
  C 465.68 534.59 465.82 532.42 467.20 530.38
  C 472.00 523.23 471.94 518.06 471.82 508.58
  C 471.70 497.71 473.35 486.80 474.10 475.97
  A 1.00 0.99 -1.4 0 1 474.99 475.04
  C 487.42 473.76 499.87 473.77 512.26 471.85
  Q 515.71 471.32 518.99 472.68
  A 1.07 1.03 50.3 0 0 519.52 472.74
  C 523.15 472.21 527.40 470.02 529.87 467.99
  C 534.63 464.08 532.74 456.72 530.54 452.05
  Q 526.52 443.54 522.42 435.08
  C 519.30 428.62 514.49 420.66 510.98 412.97
  A 1.00 1.00 0.0 0 1 511.21 411.82
  C 514.86 408.44 520.05 405.72 523.41 403.31
  Q 536.41 394.00 547.48 386.72
  C 551.30 384.21 553.40 381.75 555.65 377.43
  Q 557.85 373.18 560.10 368.90
  Z"
/>
<path fill="#0941c5" d="
  M 195.75 385.54
  Q 209.70 393.23 221.41 404.09
  Q 213.27 397.94 204.24 393.25
  Q 201.75 391.97 195.75 385.54
  Z"
/>
<path fill="#0941c5" d="
  M 333.09 516.63
  C 329.62 520.47 323.36 523.84 318.41 524.37
  Q 324.81 518.76 333.09 516.63
  Z"
/>
<path fill="#01116b" fill-opacity="0.996" d="
  M 462.74 538.10
  C 458.70 540.84 445.90 535.16 439.85 531.63
  Q 435.41 529.04 430.80 526.90
  Q 422.01 522.83 413.45 518.30
  Q 413.47 518.03 414.04 517.44
  A 1.00 0.98 30.9 0 1 415.07 517.19
  Q 418.94 518.48 423.71 520.76
  C 430.41 523.97 438.28 527.00 445.95 530.74
  Q 454.18 534.76 462.74 538.10
  Z"
/>
<path fill="#417aee" d="
  M 411.29 520.25
  Q 405.74 528.04 400.97 536.34
  C 400.15 537.77 398.73 538.53 397.91 539.86
  C 392.79 548.22 390.39 552.39 384.25 557.79
  L 382.56 556.02
  A 1.00 1.00 0.0 0 1 382.41 554.85
  C 384.19 551.57 386.88 548.79 388.60 545.80
  Q 395.84 533.17 404.50 523.26
  Q 407.02 520.37 411.00 519.10
  Q 411.69 518.88 411.41 519.54
  Q 411.27 519.86 411.29 520.25
  Z"
/>
<path fill="#0941c5" d="
  M 364.54 554.25
  L 375.11 559.20
  Q 368.30 559.53 364.54 554.25
  Z"
/>
</svg>
